<?xml version="1.0" encoding="UTF-8" standalone="no"?>
<!-- Uploaded to: SVG Repo, www.svgrepo.com, Generator: SVG Repo Mixer Tools -->

<svg
   fill="#000000"
   version="1.1"
   id="Layer_1"
   width="800px"
   height="800px"
   viewBox="0 0 24 24"
   enable-background="new 0 0 24 24"
   xml:space="preserve"
   sodipodi:docname="corner-arrow.svg"
   inkscape:version="1.4.3 (0d15f75042, 2025-12-25)"
   xmlns:inkscape="http://www.inkscape.org/namespaces/inkscape"
   xmlns:sodipodi="http://sodipodi.sourceforge.net/DTD/sodipodi-0.dtd"
   xmlns="http://www.w3.org/2000/svg"
   xmlns:svg="http://www.w3.org/2000/svg"
   xmlns:ns="http://ns.adobe.com/SaveForWeb/1.0/"><defs
   id="defs11" /><sodipodi:namedview
   id="namedview11"
   pagecolor="#ffffff"
   bordercolor="#000000"
   borderopacity="0.25"
   inkscape:showpageshadow="2"
   inkscape:pageopacity="0.0"
   inkscape:pagecheckerboard="0"
   inkscape:deskcolor="#d1d1d1"
   inkscape:zoom="0.45254834"
   inkscape:cx="328.14174"
   inkscape:cy="439.73203"
   inkscape:window-width="1920"
   inkscape:window-height="1041"
   inkscape:window-x="0"
   inkscape:window-y="0"
   inkscape:window-maximized="1"
   inkscape:current-layer="Layer_1" />
<metadata
   id="metadata1">
	<ns:sfw>
		<ns:slices>

</ns:slices>
		<ns:sliceSourceBounds
   width="505"
   height="984"
   bottomLeftOrigin="true"
   x="0"
   y="-984">

</ns:sliceSourceBounds>
	</ns:sfw>
</metadata>
<g
   id="g11">
	<g
   id="g2"
   style="fill:#ffffff;fill-opacity:1">
		<g
   id="g1"
   style="fill:#ffffff;fill-opacity:1">
			<path
   d="M18,12c-0.3,0-0.5-0.1-0.7-0.3c-0.4-0.4-0.4-1,0-1.4l5-5c0.4-0.4,1-0.4,1.4,0s0.4,1,0,1.4l-5,5C18.5,11.9,18.3,12,18,12z     "
   id="path1"
   style="fill:#ffffff;fill-opacity:1" />
		</g>
	</g>
	<g
   id="g4"
   style="fill:#ffffff;fill-opacity:1">
		<g
   id="g3"
   style="fill:#ffffff;fill-opacity:1">
			<path
   d="M23,7c-0.3,0-0.5-0.1-0.7-0.3l-5-5c-0.4-0.4-0.4-1,0-1.4s1-0.4,1.4,0l5,5c0.4,0.4,0.4,1,0,1.4C23.5,6.9,23.3,7,23,7z"
   id="path2"
   style="fill:#ffffff;fill-opacity:1" />
		</g>
	</g>
	<g
   id="g6"
   style="fill:#ffffff;fill-opacity:1">
		<g
   id="g5"
   style="fill:#ffffff;fill-opacity:1">
			<path
   d="M6,24c-0.3,0-0.5-0.1-0.7-0.3l-5-5c-0.4-0.4-0.4-1,0-1.4s1-0.4,1.4,0l5,5c0.4,0.4,0.4,1,0,1.4C6.5,23.9,6.3,24,6,24z"
   id="path4"
   style="fill:#ffffff;fill-opacity:1" />
		</g>
	</g>
	<g
   id="g8"
   style="fill:#ffffff;fill-opacity:1">
		<g
   id="g7"
   style="fill:#ffffff;fill-opacity:1">
			<path
   d="M6,24c-0.3,0-0.5-0.1-0.7-0.3c-0.4-0.4-0.4-1,0-1.4l5-5c0.4-0.4,1-0.4,1.4,0s0.4,1,0,1.4l-5,5C6.5,23.9,6.3,24,6,24z"
   id="path6"
   style="fill:#ffffff;fill-opacity:1" />
		</g>
	</g>
	<g
   id="g10"
   style="fill:#ffffff;fill-opacity:1">
		<g
   id="g9"
   style="fill:#ffffff;fill-opacity:1">
			<path
   d="M6,24c-0.6,0-1-0.4-1-1V12c0-3.9,3.1-7,7-7h11c0.6,0,1,0.4,1,1s-0.4,1-1,1H12c-2.8,0-5,2.2-5,5v11C7,23.6,6.6,24,6,24z"
   id="path8"
   style="fill:#ffffff;fill-opacity:1" />
		</g>
	</g>
</g>
</svg>
