<?xml version="1.0" encoding="UTF-8" standalone="no"?>
<svg
   width="110mm"
   height="140mm"
   viewBox="0 0 110 140"
   version="1.1"
   id="svg1"
   inkscape:version="1.4.3 (0d15f75042, 2025-12-25)"
   sodipodi:docname="Schéma.svg"
   inkscape:export-filename="Schéma.png"
   inkscape:export-xdpi="300"
   inkscape:export-ydpi="300"
   xmlns:inkscape="http://www.inkscape.org/namespaces/inkscape"
   xmlns:sodipodi="http://sodipodi.sourceforge.net/DTD/sodipodi-0.dtd"
   xmlns:xlink="http://www.w3.org/1999/xlink"
   xmlns="http://www.w3.org/2000/svg"
   xmlns:svg="http://www.w3.org/2000/svg"
   xmlns:rdf="http://www.w3.org/1999/02/22-rdf-syntax-ns#"
   xmlns:cc="http://creativecommons.org/ns#"
   xmlns:dc="http://purl.org/dc/elements/1.1/">
  <defs
     id="defs1">
    <rect
       x="276.93497"
       y="457.85715"
       width="92.190491"
       height="35.213432"
       id="rect9" />
    <marker
       style="overflow:visible"
       id="marker6"
       refX="0"
       refY="0"
       orient="auto-start-reverse"
       inkscape:stockid="Wide arrow"
       markerWidth="1.5"
       markerHeight="1.5"
       viewBox="0 0 1 1"
       inkscape:isstock="true"
       inkscape:collect="always"
       preserveAspectRatio="xMidYMid">
      <path
         style="fill:none;stroke:context-stroke;stroke-width:1;stroke-linecap:butt"
         d="M 3,-3 0,0 3,3"
         transform="rotate(180,0.125,0)"
         sodipodi:nodetypes="ccc"
         id="path6" />
    </marker>
    <rect
       x="103.91931"
       y="75"
       width="394.44864"
       height="147.6989"
       id="rect29" />
    <rect
       x="461.63971"
       y="125.76126"
       width="7.5761442"
       height="24.751467"
       id="rect28" />
    <rect
       x="103.91931"
       y="102.19342"
       width="376.74155"
       height="31.651791"
       id="rect27" />
    <rect
       x="86.26828"
       y="40"
       width="394.39258"
       height="165.71428"
       id="rect22" />
    <marker
       style="overflow:visible"
       id="marker11"
       refX="-3"
       refY="0"
       orient="auto-start-reverse"
       inkscape:stockid="Wide arrow"
       markerWidth="2"
       markerHeight="2"
       viewBox="0 0 1 1"
       inkscape:isstock="true"
       inkscape:collect="always"
       preserveAspectRatio="xMidYMid">
      <path
         style="fill:none;stroke:context-stroke;stroke-width:1;stroke-linecap:butt"
         d="M 0.60355339,3 -2.3964466,0 0.60355339,-3"
         sodipodi:nodetypes="ccc"
         id="path11" />
    </marker>
    <marker
       style="overflow:visible"
       id="marker9"
       refX="0"
       refY="0"
       orient="auto-start-reverse"
       inkscape:stockid="Wide arrow"
       markerWidth="2"
       markerHeight="2"
       viewBox="0 0 1 1"
       inkscape:isstock="true"
       inkscape:collect="always"
       preserveAspectRatio="xMidYMid">
      <path
         style="fill:none;stroke:context-stroke;stroke-width:1;stroke-linecap:butt"
         d="M 3,-3 0,0 3,3"
         transform="rotate(180,0.125,0)"
         sodipodi:nodetypes="ccc"
         id="path9" />
    </marker>
    <marker
       style="overflow:visible"
       id="ArrowWide"
       refX="1"
       refY="0"
       orient="auto-start-reverse"
       inkscape:stockid="Wide arrow"
       markerWidth="2"
       markerHeight="2"
       viewBox="0 0 1 1"
       inkscape:isstock="true"
       inkscape:collect="always"
       preserveAspectRatio="xMidYMid">
      <path
         style="fill:none;stroke:context-stroke;stroke-width:1;stroke-linecap:butt"
         d="M 3,-3 0,0 3,3"
         transform="rotate(180,0.125,0)"
         sodipodi:nodetypes="ccc"
         id="path1" />
    </marker>
    <marker
       style="overflow:visible"
       id="marker11-7"
       refX="-3"
       refY="0"
       orient="auto-start-reverse"
       inkscape:stockid="Wide arrow"
       markerWidth="2"
       markerHeight="2"
       viewBox="0 0 1 1"
       inkscape:isstock="true"
       inkscape:collect="always"
       preserveAspectRatio="xMidYMid">
      <path
         style="fill:none;stroke:context-stroke;stroke-width:1;stroke-linecap:butt"
         d="M 0.60355339,3 -2.3964466,0 0.60355339,-3"
         sodipodi:nodetypes="ccc"
         id="path11-5" />
    </marker>
    <marker
       style="overflow:visible"
       id="ArrowWide-9"
       refX="0"
       refY="0"
       orient="auto-start-reverse"
       inkscape:stockid="Wide arrow"
       markerWidth="0.001"
       markerHeight="0.001"
       viewBox="0 0 1 1"
       inkscape:isstock="true"
       inkscape:collect="always"
       preserveAspectRatio="xMidYMid"
       markerUnits="strokeWidth">
      <path
         style="fill:none;stroke:context-stroke;stroke-width:1;stroke-linecap:butt"
         d="M 3,-3 0,0 3,3"
         transform="rotate(180,0.125,0)"
         sodipodi:nodetypes="ccc"
         id="path1-1" />
    </marker>
    <marker
       style="overflow:visible"
       id="marker9-2"
       refX="0"
       refY="0"
       orient="auto-start-reverse"
       inkscape:stockid="Wide arrow"
       markerWidth="2"
       markerHeight="2"
       viewBox="0 0 1 1"
       inkscape:isstock="true"
       inkscape:collect="always"
       preserveAspectRatio="xMidYMid">
      <path
         style="fill:none;stroke:context-stroke;stroke-width:1;stroke-linecap:butt"
         d="M 3,-3 0,0 3,3"
         transform="rotate(180,0.125,0)"
         sodipodi:nodetypes="ccc"
         id="path9-7" />
    </marker>
    <marker
       style="overflow:visible"
       id="marker11-7-6"
       refX="-3"
       refY="0"
       orient="auto-start-reverse"
       inkscape:stockid="Wide arrow"
       markerWidth="2"
       markerHeight="2"
       viewBox="0 0 1 1"
       inkscape:isstock="true"
       inkscape:collect="always"
       preserveAspectRatio="xMidYMid">
      <path
         style="fill:none;stroke:context-stroke;stroke-width:1;stroke-linecap:butt"
         d="M 0.60355339,3 -2.3964466,0 0.60355339,-3"
         sodipodi:nodetypes="ccc"
         id="path11-5-0" />
    </marker>
    <marker
       style="overflow:visible"
       id="marker11-7-6-8"
       refX="-3"
       refY="0"
       orient="auto-start-reverse"
       inkscape:stockid="Wide arrow"
       markerWidth="2"
       markerHeight="2"
       viewBox="0 0 1 1"
       inkscape:isstock="true"
       inkscape:collect="always"
       preserveAspectRatio="xMidYMid">
      <path
         style="fill:none;stroke:context-stroke;stroke-width:1;stroke-linecap:butt"
         d="M 0.60355339,3 -2.3964466,0 0.60355339,-3"
         sodipodi:nodetypes="ccc"
         id="path11-5-0-7" />
    </marker>
  </defs>
  <sodipodi:namedview
     id="base"
     pagecolor="#4f4f4f"
     bordercolor="#000000"
     borderopacity="0.3"
     inkscape:pageopacity="0.0"
     inkscape:pageshadow="2"
     inkscape:zoom="1.7288638"
     inkscape:cx="205.91558"
     inkscape:cy="336.63728"
     inkscape:document-units="mm"
     inkscape:showpageshadow="2"
     inkscape:pagecheckerboard="0"
     inkscape:deskcolor="#797979"
     inkscape:window-width="1920"
     inkscape:window-height="1041"
     inkscape:window-x="0"
     inkscape:window-y="0"
     inkscape:window-maximized="1"
     inkscape:current-layer="g1" />
  <metadata
     id="metadata1">
    <rdf:RDF>
      <cc:Work
         rdf:about="">
        <dc:format>image/svg+xml</dc:format>
        <dc:type
           rdf:resource="http://purl.org/dc/dcmitype/StillImage" />
      </cc:Work>
    </rdf:RDF>
  </metadata>
  <g
     id="g3"
     inkscape:label="Pozadí"
     transform="translate(0,-30.774097)">
    <rect
       style="opacity:0.65264;fill:#ffc515;fill-opacity:1;stroke-width:0.0740833;paint-order:stroke markers fill"
       id="rect1"
       width="110"
       height="62.800304"
       x="0"
       y="30.774097"
       inkscape:label="Komora" />
    <rect
       style="opacity:1;fill:#492c8e;fill-opacity:1;stroke-width:0.0740833;paint-order:stroke markers fill"
       id="rect6"
       width="110.06622"
       height="3.2072296"
       x="-0.0662117"
       y="167.56686"
       inkscape:label="Podložka" />
    <rect
       style="opacity:0.780176;fill:#a3a3d3;fill-opacity:1;stroke-width:0.0740833;paint-order:stroke markers fill"
       id="rect7"
       width="69.76828"
       height="11.67601"
       x="40.23172"
       y="155.89085"
       ry="0"
       inkscape:label="Sklo" />
    <rect
       style="opacity:0.605555;fill:#8e8e8e;fill-opacity:1;stroke-width:0.0740833;paint-order:stroke markers fill"
       id="rect8"
       width="78.723999"
       height="5.8380127"
       x="14.58036"
       y="161.72885"
       inkscape:label="Maska" />
    <rect
       style="opacity:0.46769;fill:#ffffff;fill-opacity:1;stroke-width:0.0740833;paint-order:stroke markers fill"
       id="rect4"
       width="22.08334"
       height="62.800304"
       x="45.465778"
       y="30.774097"
       inkscape:label="Vnější rozměr" />
    <path
       id="rect5"
       style="opacity:1;fill:#121dff;fill-opacity:1;stroke-width:0.0740833;paint-order:stroke markers fill"
       d="M 51.244052,81.07589 H 61.6384 l -4.017718,57.10671 h -2.367264 z"
       sodipodi:nodetypes="ccccc"
       inkscape:label="Tryska" />
    <rect
       style="opacity:0.46769;fill:#ffffff;fill-opacity:1;stroke-width:0.0655411;paint-order:stroke markers fill"
       id="rect2"
       width="17.284286"
       height="62.800304"
       x="47.865303"
       y="30.774097"
       inkscape:label="Vnitřní rozměr" />
    <path
       style="opacity:1;fill:none;fill-opacity:1;stroke:#000000;stroke-width:0.174;stroke-dasharray:none;stroke-dashoffset:0;stroke-opacity:1;paint-order:stroke markers fill"
       d="M 67.549114,81.075889 H 45.465776"
       id="path13"
       sodipodi:nodetypes="cc" />
    <path
       style="opacity:1;fill:none;fill-opacity:1;stroke:#ffffff;stroke-width:0.174;stroke-dasharray:none;stroke-dashoffset:0;stroke-opacity:1;paint-order:stroke markers fill"
       d="M 67.549114,138.1826 H 45.465776"
       id="path2"
       sodipodi:nodetypes="cc" />
  </g>
  <g
     id="g6"
     inkscape:label="Vnitřní průměr stříkačky"
     transform="translate(0,-30.774098)">
    <path
       style="fill:none;fill-opacity:1;stroke:#000000;stroke-width:0.373999;stroke-dasharray:2.99199, 1.87;stroke-dashoffset:0;stroke-opacity:1;marker-start:url(#marker11-7-6);marker-end:url(#marker11-7-6);paint-order:stroke markers fill"
       d="M 47.865303,63.405505 H 65.14959"
       id="path20"
       sodipodi:nodetypes="cc"
       inkscape:label="šipky" />
    <g
       id="text21"
       style="font-weight:500;font-size:5.64444px;line-height:0.9;font-family:'Adwaita Sans';-inkscape-font-specification:'Adwaita Sans Medium';text-align:end;letter-spacing:0.0396875px;word-spacing:0px;text-anchor:end;stroke-width:0.174;paint-order:stroke markers fill"
       inkscape:label="Hodnota"
       aria-label="&#10;vnitřní&#10;průměr&#10;trysky">
      <path
         d="m 73.231433,59.81241 -1.107942,-2.910414 h 0.622873 l 0.578776,1.595767 q 0.07993,0.225998 0.151584,0.451996 0.07441,0.223242 0.146072,0.44924 h -0.14056 q 0.07166,-0.225998 0.143316,-0.44924 0.07166,-0.225998 0.148828,-0.451996 l 0.570507,-1.595767 h 0.614605 l -1.110698,2.910414 z"
         id="path15" />
      <path
         d="m 75.97483,58.136717 v 1.675693 h -0.581532 v -2.910414 h 0.570507 v 0.722091 h -0.135047 q 0.143315,-0.391362 0.396874,-0.584287 0.256315,-0.195682 0.617361,-0.195682 0.300412,0 0.537434,0.132292 0.239779,0.129535 0.377583,0.38585 0.137803,0.256315 0.137803,0.636653 v 1.813497 h -0.581531 v -1.741839 q 0,-0.350021 -0.168121,-0.52641 -0.165364,-0.179145 -0.468532,-0.179145 -0.198438,0 -0.35829,0.07993 -0.157096,0.07993 -0.250803,0.250803 -0.09371,0.170877 -0.09371,0.440972 z m 2.616617,1.675693 v -2.910414 h 0.581531 v 2.910414 z m 0.289387,-3.41202 q -0.15434,0 -0.261827,-0.101974 -0.10473,-0.104731 -0.10473,-0.253559 0,-0.151584 0.10473,-0.253559 0.107487,-0.104731 0.261827,-0.104731 0.154341,0 0.261827,0.104731 0.107487,0.101975 0.107487,0.253559 0,0.148828 -0.107487,0.253559 -0.107486,0.101974 -0.261827,0.101974 z m 2.440778,0.501606 v 0.479557 h -1.686718 v -0.479557 z m -1.174088,-0.79375 h 0.581532 v 2.93522 q 0,0.159852 0.06615,0.225998 0.0689,0.06339 0.242534,0.06339 0.06615,0 0.146072,0 0.07993,0 0.137804,0 v 0.479557 q -0.07166,0 -0.173633,0 -0.09922,0 -0.192925,0 -0.410655,0 -0.609092,-0.170876 -0.198438,-0.173633 -0.198438,-0.523654 z m 1.674039,3.704164 v -2.910414 h 0.556727 v 0.471289 h 0.01102 q 0.07993,-0.239779 0.250803,-0.372071 0.173632,-0.135047 0.451996,-0.135047 0.06615,0 0.121267,0.0055 0.05788,0.0028 0.09095,0.0083 v 0.542947 q -0.03307,-0.0083 -0.118511,-0.01654 -0.08544,-0.01102 -0.187413,-0.01102 -0.162608,0 -0.300412,0.07441 -0.135048,0.07441 -0.214974,0.228754 -0.07993,0.15434 -0.07993,0.394119 v 1.71979 z m 0.347266,-4.114819 0.383094,0.476801 0.383094,-0.476801 h 0.529167 v 0.0028 l -0.65319,0.777213 h -0.520898 l -0.647677,-0.777213 v -0.0028 z m 2.204304,2.439126 v 1.675693 h -0.581532 v -2.910414 h 0.570507 v 0.722091 h -0.135047 q 0.143316,-0.391362 0.396874,-0.584287 0.256315,-0.195682 0.617361,-0.195682 0.300412,0 0.537434,0.132292 0.239779,0.129535 0.377583,0.38585 0.137803,0.256315 0.137803,0.636653 v 1.813497 h -0.581531 v -1.741839 q 0,-0.350021 -0.168121,-0.52641 -0.165364,-0.179145 -0.468532,-0.179145 -0.198438,0 -0.35829,0.07993 -0.157096,0.07993 -0.250803,0.250803 -0.09371,0.170877 -0.09371,0.440972 z m 2.616617,1.675693 v -2.910414 h 0.581531 v 2.910414 z m 0.04685,-3.279728 0.416167,-0.835091 h 0.620117 l -0.587044,0.835091 z"
         id="path16" />
      <path
         d="m 69.893821,66.044445 v -4.062453 h 0.570507 v 0.418923 h 0.0083 q 0.09095,-0.159852 0.228755,-0.264583 0.140559,-0.104731 0.311436,-0.157096 0.173633,-0.05512 0.361046,-0.05512 0.377582,0 0.658702,0.192925 0.283875,0.19017 0.440971,0.531923 0.159853,0.338997 0.159853,0.788237 0,0.44924 -0.157096,0.790993 -0.157097,0.338998 -0.440972,0.531923 -0.283876,0.190169 -0.664214,0.190169 -0.187413,0 -0.355534,-0.05512 -0.165364,-0.05512 -0.300412,-0.165364 -0.135048,-0.110243 -0.23151,-0.275608 h -0.0083 v 1.590255 z m 1.358745,-1.595767 q 0.237022,0 0.413411,-0.115755 0.176388,-0.118511 0.275607,-0.341753 0.101975,-0.225998 0.101975,-0.553971 0,-0.330729 -0.101975,-0.556727 -0.09922,-0.225998 -0.275607,-0.341753 -0.176389,-0.115755 -0.413411,-0.115755 -0.248047,0 -0.432704,0.126779 -0.181901,0.124023 -0.283876,0.352778 -0.09922,0.225998 -0.09922,0.534678 0,0.303168 0.09922,0.531922 0.101975,0.228755 0.283876,0.355534 0.184657,0.124023 0.432704,0.124023 z m 1.93311,0.443728 v -2.910414 h 0.556727 v 0.471289 h 0.01102 q 0.07993,-0.239779 0.250803,-0.37207 0.173633,-0.135048 0.451996,-0.135048 0.06615,0 0.121268,0.0055 0.05788,0.0028 0.09095,0.0083 v 0.542947 q -0.03307,-0.0083 -0.118511,-0.01654 -0.08544,-0.01102 -0.187413,-0.01102 -0.162609,0 -0.300412,0.07441 -0.135048,0.07441 -0.214974,0.228754 -0.07993,0.15434 -0.07993,0.394119 v 1.71979 z m 3.00798,0.05788 q -0.297656,0 -0.537435,-0.129536 -0.239778,-0.132291 -0.377582,-0.388606 -0.137804,-0.259071 -0.137804,-0.636653 v -1.813497 h 0.581532 v 1.741839 q 0,0.347265 0.168121,0.52641 0.16812,0.179145 0.471288,0.179145 0.195682,0 0.352778,-0.07993 0.159852,-0.07993 0.253559,-0.250803 0.09371,-0.173633 0.09371,-0.440972 v -1.675693 h 0.581532 v 2.910414 h -0.570508 v -0.722091 h 0.135048 q -0.14056,0.388606 -0.396875,0.584288 -0.253558,0.195681 -0.61736,0.195681 z m 0.195681,-3.210827 q -0.187413,0 -0.341753,-0.08544 -0.151584,-0.08819 -0.242535,-0.23151 -0.09095,-0.146072 -0.09095,-0.327973 0,-0.179145 0.09095,-0.325217 0.09095,-0.146072 0.242535,-0.23151 0.15434,-0.08819 0.341753,-0.08819 0.192925,0 0.344509,0.08819 0.154341,0.08544 0.245291,0.23151 0.09095,0.146072 0.09095,0.325217 0,0.181901 -0.09095,0.327973 -0.09095,0.143316 -0.245291,0.23151 -0.151584,0.08544 -0.344509,0.08544 z m 0.0028,-0.344509 q 0.12678,0 0.212218,-0.08819 0.08819,-0.08819 0.08819,-0.212218 0,-0.124023 -0.08819,-0.212218 -0.08544,-0.08819 -0.212218,-0.08819 -0.124023,0 -0.212218,0.08819 -0.08819,0.08544 -0.08819,0.212218 0,0.124023 0.08819,0.212218 0.08819,0.08819 0.212218,0.08819 z m 1.946891,3.497458 v -2.910414 h 0.564995 v 0.614604 h -0.05512 q 0.08268,-0.220486 0.220486,-0.369314 0.14056,-0.151584 0.322461,-0.225998 0.181901,-0.07717 0.380338,-0.07717 0.338997,0 0.578776,0.195682 0.242534,0.192925 0.297656,0.4768 h -0.09095 q 0.06063,-0.192925 0.195682,-0.344509 0.137803,-0.151584 0.336241,-0.239778 0.198437,-0.08819 0.440972,-0.08819 0.272851,0 0.493337,0.118511 0.220486,0.118512 0.350021,0.352778 0.129536,0.23151 0.129536,0.581532 v 1.915471 h -0.584288 v -1.865862 q 0,-0.311436 -0.173633,-0.451996 -0.173632,-0.14056 -0.410655,-0.14056 -0.192925,0 -0.333485,0.08268 -0.140559,0.08268 -0.217729,0.225998 -0.07717,0.143316 -0.07717,0.330729 v 1.819009 h -0.573263 v -1.904447 q 0,-0.250803 -0.162608,-0.402387 -0.159853,-0.151584 -0.407899,-0.151584 -0.168121,0 -0.316949,0.07993 -0.146072,0.07993 -0.237022,0.237023 -0.08819,0.15434 -0.08819,0.38585 v 1.755619 z m 6.103051,0.06615 q -0.432704,0 -0.74414,-0.195681 -0.308681,-0.195681 -0.476801,-0.537435 -0.165365,-0.344509 -0.165365,-0.782725 0,-0.446484 0.173633,-0.788237 0.173633,-0.344509 0.479557,-0.540191 0.305924,-0.198437 0.702799,-0.198437 0.30868,0 0.556727,0.110243 0.250803,0.110243 0.429948,0.314192 0.179144,0.201194 0.275607,0.479557 0.09646,0.278364 0.09646,0.617361 v 0.157096 h -2.452907 v -0.440972 h 2.146982 l -0.256315,0.135048 q 0,-0.270095 -0.09646,-0.468533 -0.09646,-0.201193 -0.275608,-0.30868 -0.176388,-0.110243 -0.418923,-0.110243 -0.239778,0 -0.416167,0.110243 -0.176389,0.107487 -0.275608,0.30868 -0.09646,0.198438 -0.09646,0.468533 v 0.250803 q 0,0.275607 0.09646,0.487825 0.09646,0.209462 0.278364,0.327973 0.184657,0.118511 0.446484,0.118511 0.190169,0 0.336241,-0.05788 0.146072,-0.06063 0.242535,-0.165364 0.09646,-0.104731 0.137803,-0.242535 h 0.559483 q -0.05236,0.28112 -0.234266,0.496094 -0.179145,0.212218 -0.451996,0.333485 -0.270095,0.121267 -0.598068,0.121267 z m -0.416167,-4.180965 0.383094,0.476801 0.383094,-0.476801 h 0.529167 v 0.0028 l -0.65319,0.777213 h -0.520898 l -0.647678,-0.777213 v -0.0028 z m 2.285887,4.114819 v -2.910414 h 0.556727 v 0.471289 h 0.01103 q 0.07993,-0.239779 0.250802,-0.37207 0.173633,-0.135048 0.451997,-0.135048 0.06614,0 0.121267,0.0055 0.05788,0.0028 0.09095,0.0083 v 0.542947 q -0.03307,-0.0083 -0.118511,-0.01654 -0.08544,-0.01102 -0.187413,-0.01102 -0.162608,0 -0.300412,0.07441 -0.135048,0.07441 -0.214974,0.228754 -0.07993,0.15434 -0.07993,0.394119 v 1.71979 z"
         id="path17" />
      <path
         d="m 74.0308,67.061988 v 0.479557 h -1.686717 v -0.479557 z m -1.174087,-0.79375 h 0.581531 v 2.93522 q 0,0.159852 0.06615,0.225998 0.0689,0.06339 0.242535,0.06339 0.06615,0 0.146072,0 0.07993,0 0.137803,0 v 0.479557 q -0.07166,0 -0.173632,0 -0.09922,0 -0.192925,0 -0.410656,0 -0.609093,-0.170876 -0.198437,-0.173633 -0.198437,-0.523654 z m 1.674039,3.704164 v -2.910414 h 0.556727 v 0.471289 h 0.01103 q 0.07993,-0.239779 0.250802,-0.37207 0.173633,-0.135048 0.451997,-0.135048 0.06614,0 0.121267,0.0055 0.05788,0.0028 0.09095,0.0083 v 0.542947 q -0.03307,-0.0083 -0.118511,-0.01654 -0.08544,-0.01102 -0.187413,-0.01102 -0.162608,0 -0.300412,0.07441 -0.135048,0.07441 -0.214974,0.228754 -0.07993,0.15434 -0.07993,0.394119 v 1.71979 z m 2.05201,1.152039 V 70.63386 h 0.314192 q 0.09371,0 0.159852,-0.03583 0.06615,-0.03307 0.118512,-0.107487 0.05512,-0.07441 0.09922,-0.190169 L 77.406828,69.95311 76.28235,67.061988 h 0.622872 l 0.581532,1.595767 q 0.07993,0.225998 0.15434,0.451996 0.07717,0.223242 0.146072,0.44924 H 77.63007 q 0.0689,-0.225998 0.143316,-0.44924 0.07717,-0.225998 0.157096,-0.451996 l 0.573263,-1.595767 h 0.614605 l -1.322916,3.420288 q -0.08268,0.212218 -0.203949,0.352778 -0.121267,0.143315 -0.28112,0.214973 -0.159852,0.07441 -0.358289,0.07441 -0.09095,0 -0.184657,0 -0.09371,0 -0.184657,0 z m 3.991898,-1.083137 q -0.333485,0 -0.600824,-0.107487 -0.26734,-0.107487 -0.429948,-0.319704 -0.162608,-0.212218 -0.184657,-0.526411 h 0.573264 q 0.0248,0.234267 0.184657,0.363802 0.162608,0.12678 0.446484,0.12678 0.278363,0 0.438215,-0.112999 0.159853,-0.112999 0.159853,-0.286632 0,-0.148828 -0.115755,-0.237022 -0.112999,-0.09095 -0.303169,-0.132292 l -0.482313,-0.107487 q -0.410655,-0.09095 -0.622872,-0.300412 -0.212218,-0.209462 -0.212218,-0.531922 0,-0.259071 0.137804,-0.454753 0.140559,-0.195681 0.391362,-0.305924 0.250803,-0.110243 0.584288,-0.110243 0.327973,0 0.581532,0.115755 0.256315,0.115755 0.402386,0.327973 0.148828,0.212218 0.157097,0.507118 h -0.556727 q -0.0028,-0.212218 -0.159853,-0.350022 -0.157096,-0.140559 -0.416167,-0.140559 -0.248047,0 -0.394118,0.115755 -0.146072,0.115755 -0.146072,0.283875 0,0.148828 0.110243,0.239779 0.112999,0.09095 0.30868,0.135047 l 0.496093,0.110243 q 0.427192,0.09371 0.625629,0.289388 0.201194,0.195681 0.201194,0.51263 0,0.278364 -0.154341,0.479557 -0.151584,0.198437 -0.416167,0.30868 -0.264583,0.107487 -0.60358,0.107487 z m 2.263839,-1.047308 v -0.689019 h 0.05237 l 1.240233,-1.242989 h 0.722092 l -1.38355,1.405598 h -0.09095 z m -0.537434,0.978406 v -4.10655 h 0.581531 v 4.10655 z m 1.920984,0 -1.096918,-1.375281 0.399631,-0.405143 1.41111,1.780424 z m 1.115159,1.152039 V 70.63386 h 0.314193 q 0.09371,0 0.159852,-0.03583 0.06615,-0.03307 0.118511,-0.107487 0.05512,-0.07441 0.09922,-0.190169 l 0.132292,-0.347265 -1.124479,-2.891122 h 0.622873 l 0.581532,1.595767 q 0.07993,0.225998 0.15434,0.451996 0.07717,0.223242 0.146072,0.44924 h -0.157096 q 0.0689,-0.225998 0.143316,-0.44924 0.07717,-0.225998 0.157096,-0.451996 l 0.573263,-1.595767 h 0.614605 l -1.322916,3.420288 q -0.08268,0.212218 -0.203949,0.352778 -0.121268,0.143315 -0.28112,0.214973 -0.159852,0.07441 -0.35829,0.07441 -0.09095,0 -0.184657,0 -0.09371,0 -0.184657,0 z"
         id="path18" />
    </g>
    <path
       style="fill:none;fill-opacity:1;stroke:#000000;stroke-opacity:1;stroke-width:0.689;stroke-dasharray:none;paint-order:stroke markers fill"
       d="m 45.188477,61.148431 2.162805,2.257074 -2.169569,2.274897"
       id="path12"
       sodipodi:nodetypes="ccc" />
    <use
       x="0"
       y="0"
       xlink:href="#path12"
       id="use12"
       transform="rotate(180,56.507446,63.409813)"
       style="fill:#ffffff;fill-opacity:1;stroke:#ffffff;stroke-opacity:1" />
  </g>
  <g
     id="g29"
     inkscape:label="Výska komory"
     style="fill:#ffffff;fill-opacity:1;stroke:#ffffff;stroke-opacity:1"
     transform="translate(0,-30.774098)">
    <path
       style="opacity:1;fill:#ffffff;fill-opacity:1;stroke:#ffffff;stroke-width:0.374;stroke-dasharray:2.992, 1.87;stroke-dashoffset:0;stroke-opacity:1;marker-start:url(#ArrowWide);marker-end:url(#marker9);paint-order:stroke markers fill"
       d="m 2.5084635,167.56686 -2e-6,-73.276545"
       id="path8"
       sodipodi:nodetypes="cc"
       inkscape:label="šipky" />
    <g
       id="text15"
       style="font-weight:500;font-size:5.64444px;line-height:0.9;font-family:'Adwaita Sans';-inkscape-font-specification:'Adwaita Sans Medium';letter-spacing:0.0396875px;word-spacing:0px;stroke-width:0.174;paint-order:stroke markers fill"
       inkscape:label="Hodnota"
       inkscape:transform-center-y="1.4513746"
       aria-label="&#10;Výška&#10;boxu">
      <path
         style="font-weight:normal;stroke:none"
         d="M 7.5368227,130.05084 6.0209819,125.94429 H 6.544636 l 0.8874559,2.47495 q 0.071658,0.20119 0.1819009,0.54019 0.112999,0.33624 0.2811196,0.84887 H 7.7573087 q 0.1626083,-0.51263 0.2756074,-0.84887 0.112999,-0.339 0.1819009,-0.54019 l 0.8654073,-2.47495 h 0.518142 l -1.4993044,4.10655 z"
         id="path23" />
      <path
         style="font-weight:normal;stroke:none"
         d="m 10.062489,131.20288 v -0.41342 h 0.286632 q 0.09095,0 0.159852,-0.0386 0.07166,-0.0358 0.129536,-0.113 0.05788,-0.0772 0.10473,-0.19844 l 0.159853,-0.41341 -1.1272347,-2.88561 h 0.5071177 l 0.628385,1.6757 q 0.07993,0.20946 0.15434,0.41892 0.07441,0.20946 0.143316,0.41892 h -0.124023 q 0.0689,-0.20946 0.143315,-0.41892 0.07717,-0.20946 0.154341,-0.41892 l 0.61736,-1.6757 h 0.49885 l -1.342208,3.45061 q -0.07717,0.19568 -0.195682,0.33073 -0.118511,0.1378 -0.272851,0.20946 -0.15434,0.0717 -0.338997,0.0717 -0.07166,0 -0.143316,0 -0.07166,0 -0.143316,0 z m 0.868163,-4.43728 0.385851,-0.82131 h 0.534678 l -0.529166,0.82131 z m 2.996956,3.35138 q -0.311437,0 -0.564996,-0.10197 -0.253559,-0.10198 -0.410655,-0.30868 -0.157096,-0.20946 -0.176389,-0.52641 h 0.463021 q 0.02481,0.25907 0.198437,0.39687 0.173633,0.13781 0.479557,0.13781 0.303168,0 0.476801,-0.12678 0.176389,-0.12678 0.176389,-0.31971 0,-0.16536 -0.121267,-0.26458 -0.121268,-0.0992 -0.316949,-0.14332 l -0.468533,-0.11024 q -0.405143,-0.0965 -0.614604,-0.30317 -0.206706,-0.2067 -0.206706,-0.52365 0,-0.24805 0.132292,-0.43822 0.135047,-0.19292 0.37207,-0.30041 0.239778,-0.11024 0.551215,-0.11024 0.303168,0 0.542946,0.11575 0.242535,0.113 0.383095,0.32246 0.143316,0.20946 0.151584,0.49885 h -0.457509 q -0.0028,-0.23151 -0.170876,-0.38309 -0.168121,-0.15159 -0.44924,-0.15159 -0.26734,0 -0.427192,0.12954 -0.159852,0.12953 -0.159852,0.31695 0,0.16536 0.121267,0.26734 0.121267,0.0992 0.330729,0.14882 l 0.468533,0.11025 q 0.418923,0.0992 0.614604,0.29765 0.195682,0.19568 0.195682,0.50988 0,0.27009 -0.146072,0.46302 -0.146072,0.19292 -0.399631,0.2949 -0.250803,0.10197 -0.567751,0.10197 z m -0.416168,-4.17269 0.396875,0.48506 0.391363,-0.48506 h 0.474044 v 0.003 l -0.639409,0.75241 h -0.457508 l -0.633897,-0.75241 v -0.003 z m 2.55874,3.05924 v -0.55397 h 0.03583 l 1.353232,-1.30914 h 0.606336 l -1.416622,1.37804 h -0.0441 z m -0.438216,1.04731 v -4.10655 h 0.468532 v 4.10655 z m 1.932008,0 -1.185112,-1.42765 0.330729,-0.32522 1.449695,1.75287 z m 1.858697,0.0441 q -0.289388,0 -0.518142,-0.0992 -0.228755,-0.0992 -0.363802,-0.29489 -0.132292,-0.19844 -0.132292,-0.48783 0,-0.2508 0.09646,-0.4079 0.09922,-0.1571 0.261827,-0.24529 0.165364,-0.0909 0.37207,-0.1378 0.209462,-0.0469 0.427191,-0.0744 0.278364,-0.0386 0.438216,-0.0579 0.159853,-0.0193 0.225998,-0.0634 0.0689,-0.0441 0.0689,-0.15434 v -0.0276 q 0,-0.15985 -0.07717,-0.28112 -0.07441,-0.12402 -0.220486,-0.19292 -0.143316,-0.0717 -0.347265,-0.0717 -0.201194,0 -0.35829,0.0689 -0.15434,0.0661 -0.248047,0.1819 -0.09095,0.11576 -0.101974,0.26183 h -0.476801 q 0.01378,-0.26734 0.165364,-0.47404 0.151584,-0.20946 0.413411,-0.33073 0.261828,-0.12127 0.606337,-0.12127 0.253559,0 0.457508,0.0689 0.206706,0.0689 0.350022,0.19568 0.146072,0.12678 0.223242,0.30317 0.07717,0.17639 0.07717,0.39136 v 2.00643 H 20.2991 v -0.41341 h -0.01102 q -0.05237,0.10473 -0.15434,0.21221 -0.101975,0.10473 -0.275608,0.17639 -0.170876,0.0689 -0.435459,0.0689 z m 0.06615,-0.41892 q 0.286632,0 0.465777,-0.10197 0.179145,-0.10474 0.261827,-0.2701 0.08268,-0.16536 0.08268,-0.35553 v -0.36381 q -0.02756,0.0248 -0.101975,0.0469 -0.07166,0.0221 -0.179144,0.0441 -0.104731,0.0193 -0.228755,0.0386 -0.121267,0.0193 -0.24529,0.0358 -0.168121,0.0221 -0.319705,0.0772 -0.148828,0.0524 -0.242534,0.15158 -0.09371,0.0965 -0.09371,0.26183 0,0.13505 0.07166,0.23427 0.07441,0.0965 0.209462,0.14882 0.135047,0.0524 0.319704,0.0524 z"
         id="path24" />
      <path
         style="font-weight:normal;stroke:none"
         d="m 7.696675,135.18595 q -0.187413,0 -0.3582896,-0.0551 -0.1708766,-0.0524 -0.3141925,-0.16261 -0.1433159,-0.11024 -0.2480467,-0.27836 h -0.00551 v 0.44097 H 6.3131257 v -4.10655 h 0.4685327 v 1.62609 h 0.00551 q 0.093706,-0.16261 0.2342663,-0.2701 0.1405598,-0.10749 0.3141925,-0.15985 0.1736327,-0.0551 0.3610457,-0.0551 0.3803383,0 0.6642139,0.19017 0.2838757,0.19016 0.4409719,0.53192 0.1570963,0.339 0.1570963,0.78824 0,0.44648 -0.1570963,0.78823 -0.1570962,0.339 -0.4409719,0.53192 -0.2838756,0.19017 -0.6642139,0.19017 z m -0.071658,-0.42168 q 0.2535588,0 0.446484,-0.12402 0.1929252,-0.12402 0.3031682,-0.36656 0.110243,-0.24253 0.110243,-0.59806 0,-0.35829 -0.110243,-0.60083 -0.110243,-0.24253 -0.3031682,-0.36656 -0.1929252,-0.12402 -0.446484,-0.12402 -0.2700953,0 -0.4685326,0.13505 -0.1984374,0.13505 -0.3059243,0.38034 -0.1074869,0.24529 -0.1074869,0.57602 0,0.32797 0.1074869,0.57326 0.1074869,0.24529 0.3059243,0.38034 0.1984373,0.13504 0.4685326,0.13504 z m 3.1209789,0.43271 q -0.402387,0 -0.708312,-0.19293 -0.3031677,-0.19568 -0.4740443,-0.53743 -0.1681205,-0.34175 -0.1681205,-0.78548 0,-0.44649 0.1681205,-0.791 0.1708766,-0.34451 0.4740443,-0.54019 0.305925,-0.19568 0.708312,-0.19568 0.405142,0 0.708311,0.19568 0.303168,0.19568 0.471288,0.54019 0.170877,0.34451 0.170877,0.791 0,0.44373 -0.170877,0.78548 -0.16812,0.34175 -0.471288,0.53743 -0.303169,0.19293 -0.708311,0.19293 z m 0,-0.42444 q 0.275607,0 0.471288,-0.13504 0.195682,-0.13505 0.300412,-0.38034 0.104731,-0.24805 0.104731,-0.57602 0,-0.33349 -0.104731,-0.57878 -0.10473,-0.24804 -0.300412,-0.38585 -0.195681,-0.1378 -0.471288,-0.1378 -0.272852,0 -0.471289,0.1378 -0.195681,0.13505 -0.3004122,0.3831 -0.1047309,0.24804 -0.1047309,0.58153 0,0.33073 0.1047309,0.57602 0.1047312,0.24529 0.3004122,0.38034 0.195681,0.13504 0.471289,0.13504 z m 1.505919,0.35829 1.218184,-1.66467 -0.0028,0.36105 -1.152039,-1.60679 h 0.551215 l 0.394119,0.57326 q 0.118511,0.17088 0.23151,0.34175 0.112999,0.16813 0.228754,0.34176 h -0.23151 q 0.118511,-0.17363 0.23151,-0.34176 0.115755,-0.17087 0.234267,-0.34175 l 0.39963,-0.57326 h 0.542947 l -1.154795,1.60679 v -0.3638 l 1.204404,1.66742 h -0.548459 l -0.46302,-0.66146 q -0.115755,-0.16536 -0.225998,-0.32797 -0.110243,-0.16261 -0.223242,-0.33073 h 0.234266 q -0.112999,0.16812 -0.225998,0.33073 -0.112999,0.16261 -0.228754,0.32797 l -0.468533,0.66146 z m 4.234432,0.0551 q -0.292144,0 -0.537434,-0.12678 -0.242535,-0.12953 -0.388607,-0.38585 -0.143316,-0.25907 -0.143316,-0.64492 v -1.80798 h 0.468533 v 1.77491 q 0,0.37758 0.181901,0.57051 0.181901,0.19017 0.507118,0.19017 0.212217,0 0.38585,-0.0854 0.173633,-0.0854 0.275607,-0.2701 0.104731,-0.18465 0.104731,-0.4768 v -1.70325 h 0.468533 v 2.91041 h -0.457508 v -0.70555 h 0.132291 q -0.143316,0.39136 -0.399631,0.57602 -0.253558,0.18465 -0.598068,0.18465 z"
         id="path25" />
    </g>
    <use
       x="0"
       y="0"
       xlink:href="#use35"
       id="use36"
       transform="translate(-20.080031,36.579879)"
       style="fill:#ffffff;fill-opacity:1;stroke:#ffffff;stroke-opacity:1" />
    <use
       x="0"
       y="0"
       xlink:href="#use34"
       id="use37"
       transform="translate(-20.000779,-42.90537)"
       style="fill:#ffffff;fill-opacity:1;stroke:#ffffff;stroke-opacity:1" />
  </g>
  <g
     id="g30"
     inkscape:label="Výška trysky"
     style="fill:#ffffff;fill-opacity:1"
     transform="translate(0,-30.774098)">
    <path
       style="fill:none;fill-opacity:1;stroke:#ffffff;stroke-width:0.374;stroke-dasharray:2.992, 1.87;stroke-dashoffset:0;stroke-opacity:1;marker-start:url(#ArrowWide-9);marker-end:url(#marker9-2);paint-order:stroke markers fill"
       d="m 48.735594,138.1826 -2e-6,-56.386193"
       id="path8-0"
       sodipodi:nodetypes="cc"
       inkscape:label="šipky" />
    <g
       id="text16"
       style="font-weight:500;font-size:5.64444px;line-height:0.9;font-family:'Adwaita Sans';-inkscape-font-specification:'Adwaita Sans Medium';text-align:end;letter-spacing:0.0396875px;word-spacing:0px;text-anchor:end;stroke-width:0.174;paint-order:stroke markers fill"
       inkscape:label="Hodnota"
       aria-label="&#10;Výška&#10;trysky">
      <path
         d="m 32.129253,113.65064 -1.491036,-4.10655 h 0.658702 l 0.813042,2.3151 q 0.08544,0.25907 0.201193,0.63114 0.118511,0.36931 0.28112,0.88194 h -0.173633 q 0.157096,-0.51263 0.272851,-0.88194 0.118511,-0.37207 0.20395,-0.63114 l 0.790993,-2.3151 h 0.647678 l -1.468988,4.10655 z"
         id="path26" />
      <path
         d="m 34.787211,114.80268 v -0.49059 h 0.314193 q 0.09371,0 0.159852,-0.0358 0.06615,-0.0331 0.118511,-0.10749 0.05512,-0.0744 0.09922,-0.19017 l 0.132291,-0.34727 -1.124478,-2.89112 h 0.622873 l 0.581532,1.59577 q 0.07993,0.226 0.15434,0.452 0.07717,0.22324 0.146072,0.44924 h -0.157097 q 0.0689,-0.226 0.143316,-0.44924 0.07717,-0.226 0.157096,-0.452 l 0.573264,-1.59577 H 37.3228 l -1.322916,3.42029 q -0.08268,0.21222 -0.20395,0.35278 -0.121267,0.14331 -0.281119,0.21497 -0.159853,0.0744 -0.35829,0.0744 -0.09095,0 -0.184657,0 -0.09371,0 -0.184657,0 z m 0.857139,-4.43177 0.416167,-0.83509 h 0.620117 l -0.587044,0.83509 z m 3.134759,3.34863 q -0.333485,0 -0.600824,-0.10749 -0.267339,-0.10749 -0.429947,-0.3197 -0.162609,-0.21222 -0.184657,-0.52641 h 0.573263 q 0.02481,0.23426 0.184657,0.3638 0.162608,0.12678 0.446484,0.12678 0.278364,0 0.438216,-0.113 0.159852,-0.113 0.159852,-0.28663 0,-0.14883 -0.115755,-0.23703 -0.112999,-0.091 -0.303168,-0.13229 l -0.482313,-0.10748 q -0.410655,-0.0909 -0.622873,-0.30042 -0.212218,-0.20946 -0.212218,-0.53192 0,-0.25907 0.137804,-0.45475 0.14056,-0.19568 0.391363,-0.30592 0.250802,-0.11025 0.584287,-0.11025 0.327973,0 0.581532,0.11576 0.256315,0.11575 0.402387,0.32797 0.148828,0.21222 0.157096,0.50712 h -0.556727 q -0.0028,-0.21222 -0.159852,-0.35002 -0.157096,-0.14056 -0.416167,-0.14056 -0.248047,0 -0.394119,0.11575 -0.146072,0.11576 -0.146072,0.28388 0,0.14883 0.110243,0.23978 0.112999,0.0909 0.30868,0.13504 l 0.496094,0.11025 q 0.427191,0.0937 0.625629,0.28938 0.201193,0.19569 0.201193,0.51263 0,0.27837 -0.15434,0.47956 -0.151584,0.19844 -0.416167,0.30868 -0.264583,0.10749 -0.603581,0.10749 z m -0.405143,-4.18372 0.383095,0.4768 0.383094,-0.4768 h 0.529166 v 0.003 l -0.653189,0.77722 h -0.520898 l -0.647678,-0.77722 v -0.003 z m 2.668983,3.13641 v -0.68902 h 0.05237 l 1.240234,-1.24299 h 0.722091 l -1.383549,1.4056 h -0.09095 z m -0.537435,0.97841 v -4.10655 h 0.581532 v 4.10655 z m 1.920984,0 -1.096918,-1.37528 0.399631,-0.40515 1.41111,1.78043 z m 1.949647,0.0469 q -0.289387,0 -0.518141,-0.0992 -0.225999,-0.0992 -0.35829,-0.2949 -0.132292,-0.19568 -0.132292,-0.48507 0,-0.24804 0.09371,-0.4079 0.09646,-0.15985 0.259071,-0.25356 0.162608,-0.0937 0.369314,-0.14056 0.206705,-0.0496 0.427191,-0.0744 0.275608,-0.0358 0.432704,-0.0551 0.159852,-0.0221 0.225998,-0.0662 0.0689,-0.0468 0.0689,-0.15158 v -0.0248 q 0,-0.14056 -0.0689,-0.24804 -0.0689,-0.11025 -0.201193,-0.17363 -0.132292,-0.0634 -0.316949,-0.0634 -0.184657,0 -0.327973,0.0606 -0.14056,0.0606 -0.225998,0.16812 -0.08268,0.10473 -0.09371,0.23978 H 43.43908 q 0.01378,-0.27837 0.168121,-0.49058 0.15434,-0.21222 0.424435,-0.33349 0.270095,-0.12127 0.633897,-0.12127 0.267339,0 0.482313,0.0689 0.214974,0.0689 0.363802,0.19843 0.151584,0.12678 0.228754,0.30593 0.07993,0.17914 0.07993,0.39963 v 1.9954 h -0.573263 v -0.41341 h -0.01102 q -0.06063,0.11851 -0.165365,0.22324 -0.104731,0.10473 -0.275607,0.17087 -0.168121,0.0662 -0.418924,0.0662 z m 0.118512,-0.46853 q 0.256315,0 0.421679,-0.091 0.168121,-0.0937 0.248047,-0.24529 0.08268,-0.15159 0.08268,-0.33073 v -0.34176 q -0.03032,0.0248 -0.09922,0.0469 -0.06615,0.0193 -0.162608,0.0386 -0.09646,0.0165 -0.209462,0.0358 -0.112999,0.0193 -0.225998,0.0331 -0.159852,0.022 -0.297656,0.0744 -0.137804,0.0496 -0.223242,0.14056 -0.08268,0.0909 -0.08268,0.23978 0,0.12402 0.06615,0.21497 0.06614,0.0882 0.190169,0.1378 0.124023,0.0469 0.292144,0.0469 z"
         id="path27" />
      <path
         d="m 32.279847,115.82022 v 0.47956 h -1.686718 v -0.47956 z m -1.174088,-0.79375 h 0.581532 v 2.93522 q 0,0.15985 0.06615,0.226 0.0689,0.0634 0.242534,0.0634 0.06615,0 0.146072,0 0.07993,0 0.137804,0 v 0.47955 q -0.07166,0 -0.173633,0 -0.09922,0 -0.192925,0 -0.410655,0 -0.609093,-0.17087 -0.198437,-0.17364 -0.198437,-0.52366 z m 1.67404,3.70416 v -2.91041 h 0.556727 v 0.47129 h 0.01102 q 0.07993,-0.23978 0.250803,-0.37207 0.173632,-0.13505 0.451996,-0.13505 0.06615,0 0.121267,0.006 0.05788,0.003 0.09095,0.008 v 0.54295 q -0.03307,-0.008 -0.118512,-0.0165 -0.08544,-0.011 -0.187413,-0.011 -0.162608,0 -0.300412,0.0744 -0.135047,0.0744 -0.214973,0.22875 -0.07993,0.15434 -0.07993,0.39412 v 1.71979 z m 2.052009,1.15204 v -0.49058 H 35.146 q 0.09371,0 0.159853,-0.0358 0.06615,-0.0331 0.118511,-0.10749 0.05512,-0.0744 0.09922,-0.19016 l 0.132291,-0.34727 -1.124478,-2.89112 h 0.622873 l 0.581531,1.59577 q 0.07993,0.22599 0.154341,0.45199 0.07717,0.22324 0.146071,0.44924 h -0.157096 q 0.0689,-0.226 0.143316,-0.44924 0.07717,-0.226 0.157096,-0.45199 l 0.573264,-1.59577 h 0.614604 l -1.322915,3.42029 q -0.08268,0.21221 -0.20395,0.35277 -0.121267,0.14332 -0.281119,0.21498 -0.159853,0.0744 -0.35829,0.0744 -0.09095,0 -0.184657,0 -0.09371,0 -0.184657,0 z m 3.991898,-1.08314 q -0.333485,0 -0.600824,-0.10748 -0.267339,-0.10749 -0.429948,-0.31971 -0.162608,-0.21221 -0.184657,-0.52641 h 0.573264 q 0.02481,0.23427 0.184657,0.3638 0.162608,0.12678 0.446484,0.12678 0.278363,0 0.438216,-0.113 0.159852,-0.11299 0.159852,-0.28663 0,-0.14882 -0.115755,-0.23702 -0.112999,-0.091 -0.303168,-0.13229 l -0.482313,-0.10749 q -0.410655,-0.091 -0.622873,-0.30041 -0.212218,-0.20946 -0.212218,-0.53192 0,-0.25907 0.137804,-0.45475 0.14056,-0.19569 0.391362,-0.30593 0.250803,-0.11024 0.584288,-0.11024 0.327973,0 0.581532,0.11575 0.256315,0.11576 0.402387,0.32798 0.148828,0.21221 0.157096,0.50711 h -0.556727 q -0.0028,-0.21221 -0.159852,-0.35002 -0.157097,-0.14056 -0.416168,-0.14056 -0.248046,0 -0.394118,0.11576 -0.146072,0.11575 -0.146072,0.28387 0,0.14883 0.110243,0.23978 0.112999,0.091 0.30868,0.13505 l 0.496094,0.11024 q 0.427191,0.0937 0.625628,0.28939 0.201194,0.19568 0.201194,0.51263 0,0.27836 -0.15434,0.47956 -0.151584,0.19843 -0.416168,0.30868 -0.264583,0.10748 -0.60358,0.10748 z m 2.26384,-1.0473 v -0.68902 h 0.05236 l 1.240233,-1.24299 h 0.722092 l -1.383549,1.4056 h -0.09095 z m -0.537435,0.9784 v -4.10655 h 0.581532 v 4.10655 z m 1.920984,0 -1.096918,-1.37528 0.399631,-0.40514 1.41111,1.78042 z m 1.11516,1.15204 v -0.49058 h 0.314192 q 0.09371,0 0.159853,-0.0358 0.06614,-0.0331 0.118511,-0.10749 0.05512,-0.0744 0.09922,-0.19016 l 0.132292,-0.34727 -1.124478,-2.89112 h 0.622872 l 0.581532,1.59577 q 0.07993,0.22599 0.15434,0.45199 0.07717,0.22324 0.146072,0.44924 h -0.157096 q 0.0689,-0.226 0.143316,-0.44924 0.07717,-0.226 0.157096,-0.45199 l 0.573264,-1.59577 h 0.614604 l -1.322916,3.42029 q -0.08268,0.21221 -0.203949,0.35277 -0.121267,0.14332 -0.28112,0.21498 -0.159852,0.0744 -0.358289,0.0744 -0.09095,0 -0.184657,0 -0.09371,0 -0.184657,0 z"
         id="path28" />
    </g>
    <path
       style="fill:none;fill-opacity:1;stroke:#ffffff;stroke-width:0.689;stroke-dasharray:none;stroke-opacity:1;paint-order:stroke markers fill"
       d="m 46.478518,52.955556 2.257074,-2.162805 2.274897,2.169569"
       id="path29"
       sodipodi:nodetypes="ccc"
       transform="translate(0,30.774098)" />
    <use
       x="0"
       y="0"
       xlink:href="#path29"
       id="use29"
       transform="rotate(-179.49171,48.856126,109.68615)" />
  </g>
  <g
     id="g1"
     inkscape:label="Výška držáku">
    <path
       style="fill:#ffffff;fill-opacity:1;stroke:none;stroke-opacity:1;font-weight:500;font-size:5.64444px;line-height:0.9;font-family:'Adwaita Sans';-inkscape-font-specification:'Adwaita Sans Medium';text-align:center;letter-spacing:0.0396875px;word-spacing:0px;text-anchor:middle;stroke-width:0.174;paint-order:stroke markers fill"
       d="m 11.578725,147.11781 v -0.53743 h 3.227363 v 0.53743 h -1.303623 v 3.56912 H 12.88786 v -3.56912 z"
       id="path3"
       transform="translate(0,-30.774098)" />
    <path
       style="fill:#ffffff;fill-opacity:1;stroke:none;stroke-opacity:1;font-weight:500;font-size:5.64444px;line-height:0.9;font-family:'Adwaita Sans';-inkscape-font-specification:'Adwaita Sans Medium';text-align:center;letter-spacing:0.0396875px;word-spacing:0px;text-anchor:middle;stroke-width:0.174;paint-order:stroke markers fill"
       d="m 16.116326,150.68693 q -0.43546,0 -0.622873,-0.15985 -0.187413,-0.16261 -0.187413,-0.54019 v -3.40651 h 0.581532 v 3.34863 q 0,0.16812 0.05788,0.226 0.05788,0.0551 0.223242,0.0551 0.02481,0 0.05788,0 0.03307,0 0.05788,0 v 0.4768 q -0.04134,0 -0.08544,0 -0.04134,0 -0.08268,0 z m 1.793649,0.0662 q -0.416167,0 -0.73036,-0.19293 -0.314192,-0.19293 -0.490581,-0.53468 -0.173633,-0.34175 -0.173633,-0.78824 0,-0.45199 0.173633,-0.79374 0.176389,-0.34451 0.490581,-0.53744 0.314193,-0.19568 0.73036,-0.19568 0.416167,0 0.727603,0.19568 0.314193,0.19293 0.487826,0.53744 0.176388,0.34175 0.176388,0.79374 0,0.44649 -0.176388,0.78824 -0.173633,0.34175 -0.487826,0.53468 -0.311436,0.19293 -0.727603,0.19293 z m 0,-0.50161 q 0.248046,0 0.427191,-0.12402 0.181901,-0.12678 0.278364,-0.35554 0.09922,-0.22875 0.09922,-0.53468 0,-0.31419 -0.09922,-0.54294 -0.09646,-0.22876 -0.278364,-0.35554 -0.179145,-0.12678 -0.427191,-0.12678 -0.248047,0 -0.429948,0.12678 -0.179145,0.12403 -0.278363,0.35554 -0.09646,0.22875 -0.09646,0.54294 0,0.30868 0.09646,0.53744 0.09922,0.226 0.278363,0.35278 0.179145,0.12402 0.429948,0.12402 z m 2.999711,0.49334 q -0.297656,0 -0.537434,-0.12954 -0.239779,-0.13229 -0.377582,-0.3886 -0.137804,-0.25908 -0.137804,-0.63666 v -1.81349 h 0.581531 v 1.74183 q 0,0.34727 0.168121,0.52641 0.168121,0.17915 0.471289,0.17915 0.195681,0 0.352777,-0.0799 0.159853,-0.0799 0.253559,-0.2508 0.09371,-0.17363 0.09371,-0.44097 v -1.67569 h 0.581531 v 2.91041 h -0.570507 v -0.72209 h 0.135048 q -0.14056,0.3886 -0.396875,0.58429 -0.253559,0.19568 -0.617361,0.19568 z m 3.222954,0.011 q -0.333485,0 -0.600825,-0.10749 -0.267339,-0.10748 -0.429947,-0.3197 -0.162609,-0.21222 -0.184657,-0.52641 h 0.573263 q 0.02481,0.23427 0.184657,0.3638 0.162609,0.12678 0.446484,0.12678 0.278364,0 0.438216,-0.113 0.159852,-0.113 0.159852,-0.28663 0,-0.14883 -0.115755,-0.23702 -0.112999,-0.0909 -0.303168,-0.13229 l -0.482313,-0.10749 q -0.410655,-0.0909 -0.622873,-0.30041 -0.212217,-0.20946 -0.212217,-0.53193 0,-0.25907 0.137803,-0.45475 0.14056,-0.19568 0.391363,-0.30592 0.250803,-0.11024 0.584288,-0.11024 0.327972,0 0.581531,0.11575 0.256315,0.11576 0.402387,0.32797 0.148828,0.21222 0.157096,0.50712 h -0.556727 q -0.0028,-0.21222 -0.159852,-0.35002 -0.157096,-0.14056 -0.416167,-0.14056 -0.248047,0 -0.394119,0.11575 -0.146072,0.11576 -0.146072,0.28388 0,0.14883 0.110243,0.23978 0.112999,0.0909 0.308681,0.13505 l 0.496093,0.11024 q 0.427191,0.0937 0.625629,0.28939 0.201193,0.19568 0.201193,0.51263 0,0.27836 -0.15434,0.47955 -0.151584,0.19844 -0.416167,0.30868 -0.264583,0.10749 -0.60358,0.10749 z m -0.405143,-4.18372 0.383094,0.4768 0.383094,-0.4768 h 0.529167 v 0.003 l -0.65319,0.77721 h -0.520898 l -0.647678,-0.77721 v -0.003 z m 3.58951,1.20441 v 0.47955 H 25.63029 v -0.47955 z m -1.174087,-0.79375 h 0.581531 v 2.93521 q 0,0.15986 0.06615,0.226 0.0689,0.0634 0.242535,0.0634 0.06615,0 0.146072,0 0.07993,0 0.137803,0 v 0.47956 q -0.07166,0 -0.173632,0 -0.09922,0 -0.192926,0 -0.410655,0 -0.609092,-0.17088 -0.198437,-0.17363 -0.198437,-0.52365 z m 0.934309,0.44648 v -1.04731 h 0.531922 l -0.143316,1.04731 z m 1.602381,2.27927 v -0.68902 h 0.05236 l 1.240234,-1.24298 H 30.6943 l -1.383549,1.40559 h -0.09095 z m -0.537434,0.97841 v -4.10655 h 0.581531 v 4.10655 z m 1.920983,0 -1.096917,-1.37528 0.399631,-0.40514 1.41111,1.78042 z m 1.949648,0.0469 q -0.289388,0 -0.518142,-0.0992 -0.225998,-0.0992 -0.35829,-0.2949 -0.132291,-0.19568 -0.132291,-0.48506 0,-0.24805 0.09371,-0.4079 0.09646,-0.15986 0.259071,-0.25356 0.162608,-0.0937 0.369314,-0.14056 0.206706,-0.0496 0.427192,-0.0744 0.275607,-0.0358 0.432703,-0.0551 0.159853,-0.022 0.225998,-0.0661 0.0689,-0.0469 0.0689,-0.15159 v -0.0248 q 0,-0.14056 -0.0689,-0.24805 -0.0689,-0.11024 -0.201193,-0.17363 -0.132292,-0.0634 -0.316949,-0.0634 -0.184657,0 -0.327972,0.0606 -0.14056,0.0606 -0.225999,0.16812 -0.08268,0.10473 -0.09371,0.23978 h -0.570507 q 0.01378,-0.27836 0.16812,-0.49058 0.15434,-0.21222 0.424435,-0.33349 0.270096,-0.12126 0.633898,-0.12126 0.267339,0 0.482313,0.0689 0.214973,0.0689 0.363801,0.19844 0.151584,0.12678 0.228755,0.30592 0.07993,0.17915 0.07993,0.39963 v 1.9954 h -0.573264 v -0.41341 h -0.01102 q -0.06063,0.11851 -0.165364,0.22324 -0.104731,0.10473 -0.275608,0.17088 -0.16812,0.0661 -0.418923,0.0661 z m 0.118511,-0.46853 q 0.256315,0 0.421679,-0.091 0.168121,-0.0937 0.248047,-0.24529 0.08268,-0.15158 0.08268,-0.33073 v -0.34175 q -0.03032,0.0248 -0.09922,0.0469 -0.06615,0.0193 -0.162609,0.0386 -0.09646,0.0165 -0.209461,0.0358 -0.112999,0.0193 -0.225999,0.0331 -0.159852,0.0221 -0.297656,0.0744 -0.137803,0.0496 -0.223242,0.14056 -0.08268,0.0909 -0.08268,0.23978 0,0.12402 0.06615,0.21497 0.06615,0.0882 0.190169,0.13781 0.124023,0.0469 0.292144,0.0469 z"
       id="path4"
       transform="translate(0,-30.774098)" />
    <path
       style="fill:#ffffff;fill-opacity:1;stroke:none;stroke-opacity:1;font-weight:500;font-size:5.64444px;line-height:0.9;font-family:'Adwaita Sans';-inkscape-font-specification:'Adwaita Sans Medium';text-align:center;letter-spacing:0.0396875px;word-spacing:0px;text-anchor:middle;stroke-width:0.174;paint-order:stroke markers fill"
       d="m 14.634908,155.76693 v -2.91042 h 0.564995 v 0.61461 h -0.05512 q 0.08268,-0.22049 0.220486,-0.36932 0.140559,-0.15158 0.32246,-0.226 0.181901,-0.0772 0.380339,-0.0772 0.338997,0 0.578775,0.19568 0.242535,0.19293 0.297656,0.47681 h -0.09095 q 0.06063,-0.19293 0.195681,-0.34451 0.137804,-0.15159 0.336241,-0.23978 0.198437,-0.0882 0.440972,-0.0882 0.272851,0 0.493337,0.11851 0.220486,0.11852 0.350022,0.35278 0.129535,0.23151 0.129535,0.58153 v 1.91548 h -0.584288 v -1.86587 q 0,-0.31143 -0.173632,-0.45199 -0.173633,-0.14056 -0.410655,-0.14056 -0.192926,0 -0.333485,0.0827 -0.14056,0.0827 -0.21773,0.226 -0.07717,0.14331 -0.07717,0.33073 v 1.81901 h -0.573264 v -1.90445 q 0,-0.2508 -0.162608,-0.40239 -0.159852,-0.15158 -0.407899,-0.15158 -0.168121,0 -0.316949,0.0799 -0.146072,0.0799 -0.237022,0.23703 -0.08819,0.15434 -0.08819,0.38585 v 1.75562 z m 5.747517,0.0469 q -0.289387,0 -0.518141,-0.0992 -0.225999,-0.0992 -0.35829,-0.2949 -0.132292,-0.19568 -0.132292,-0.48507 0,-0.24805 0.09371,-0.4079 0.09646,-0.15985 0.259071,-0.25356 0.162608,-0.0937 0.369314,-0.14056 0.206705,-0.0496 0.427191,-0.0744 0.275608,-0.0358 0.432704,-0.0551 0.159852,-0.0221 0.225998,-0.0661 0.0689,-0.0469 0.0689,-0.15158 v -0.0248 q 0,-0.14056 -0.0689,-0.24804 -0.0689,-0.11025 -0.201193,-0.17364 -0.132292,-0.0634 -0.316949,-0.0634 -0.184657,0 -0.327973,0.0606 -0.14056,0.0606 -0.225998,0.16812 -0.08268,0.10473 -0.09371,0.23978 H 19.44536 q 0.01378,-0.27837 0.168121,-0.49058 0.15434,-0.21222 0.424435,-0.33349 0.270095,-0.12127 0.633897,-0.12127 0.26734,0 0.482313,0.0689 0.214974,0.0689 0.363802,0.19843 0.151584,0.12678 0.228754,0.30593 0.07993,0.17914 0.07993,0.39963 v 1.9954 h -0.573263 v -0.41342 h -0.01102 q -0.06063,0.11852 -0.165365,0.22325 -0.104731,0.10473 -0.275607,0.17087 -0.168121,0.0662 -0.418924,0.0662 z m 0.118512,-0.46853 q 0.256315,0 0.421679,-0.0909 0.168121,-0.0937 0.248047,-0.24529 0.08268,-0.15159 0.08268,-0.33073 v -0.34176 q -0.03032,0.0248 -0.09922,0.0469 -0.06615,0.0193 -0.162608,0.0386 -0.09646,0.0165 -0.209462,0.0358 -0.112999,0.0193 -0.225998,0.0331 -0.159852,0.0221 -0.297656,0.0744 -0.137804,0.0496 -0.223242,0.14056 -0.08268,0.0909 -0.08268,0.23978 0,0.12402 0.06615,0.21497 0.06615,0.0882 0.190169,0.1378 0.124023,0.0469 0.292144,0.0469 z m 3.098929,0.49058 q -0.333485,0 -0.600824,-0.10749 -0.267339,-0.10749 -0.429947,-0.3197 -0.162609,-0.21222 -0.184657,-0.52641 h 0.573263 q 0.02481,0.23426 0.184657,0.3638 0.162608,0.12678 0.446484,0.12678 0.278364,0 0.438216,-0.113 0.159852,-0.113 0.159852,-0.28663 0,-0.14883 -0.115755,-0.23703 -0.112999,-0.091 -0.303168,-0.13229 l -0.482313,-0.10748 q -0.410655,-0.091 -0.622873,-0.30042 -0.212218,-0.20946 -0.212218,-0.53192 0,-0.25907 0.137804,-0.45475 0.14056,-0.19568 0.391363,-0.30593 0.250802,-0.11024 0.584287,-0.11024 0.327973,0 0.581532,0.11576 0.256315,0.11575 0.402387,0.32797 0.148828,0.21222 0.157096,0.50712 h -0.556727 q -0.0028,-0.21222 -0.159852,-0.35002 -0.157096,-0.14056 -0.416167,-0.14056 -0.248047,0 -0.394119,0.11575 -0.146072,0.11576 -0.146072,0.28388 0,0.14882 0.110243,0.23978 0.112999,0.0909 0.30868,0.13504 l 0.496094,0.11025 q 0.427191,0.0937 0.625629,0.28938 0.201193,0.19568 0.201193,0.51263 0,0.27837 -0.15434,0.47956 -0.151584,0.19844 -0.416167,0.30868 -0.264583,0.10749 -0.603581,0.10749 z m 2.26384,-1.04731 v -0.68902 h 0.05236 l 1.240234,-1.24299 h 0.722091 l -1.383549,1.4056 h -0.09095 z m -0.537435,0.97841 v -4.10656 h 0.581532 v 4.10656 z m 1.920984,0 -1.096918,-1.37529 0.399631,-0.40514 1.41111,1.78043 z m 1.11516,1.15203 v -0.49058 h 0.314192 q 0.09371,0 0.159853,-0.0358 0.06615,-0.0331 0.118511,-0.10748 0.05512,-0.0744 0.09922,-0.19017 l 0.132291,-0.34727 -1.124478,-2.89112 h 0.622873 l 0.581531,1.59577 q 0.07993,0.226 0.15434,0.45199 0.07717,0.22325 0.146072,0.44924 h -0.157096 q 0.0689,-0.22599 0.143316,-0.44924 0.07717,-0.22599 0.157096,-0.45199 l 0.573264,-1.59577 h 0.614604 l -1.322915,3.42029 q -0.08268,0.21222 -0.20395,0.35278 -0.121267,0.14331 -0.281119,0.21497 -0.159853,0.0744 -0.35829,0.0744 -0.09095,0 -0.184657,0 -0.09371,0 -0.184657,0 z"
       id="path7"
       transform="translate(0,-30.774098)" />
    <path
       style="fill:#ffffff;fill-opacity:1;stroke:#ffffff;stroke-opacity:1;opacity:1;stroke-width:0.373999;stroke-dasharray:none;stroke-dashoffset:0;marker-start:url(#marker11);marker-end:url(#marker11);paint-order:stroke markers fill"
       d="m 22.517858,161.72885 v 5.83802"
       id="path10"
       inkscape:label="šipky"
       transform="translate(0,-30.774098)" />
    <use
       x="0"
       y="0"
       xlink:href="#use31"
       id="use34"
       transform="translate(-41.628994,-18.916649)" />
    <use
       x="0"
       y="0"
       xlink:href="#use34"
       id="use35"
       transform="rotate(180,22.517858,133.85304)" />
  </g>
  <g
     id="g26"
     inkscape:label="Průměr trysky"
     style="fill:#ffffff;fill-opacity:1"
     transform="translate(0,-30.774098)">
    <path
       style="opacity:1;fill:none;fill-opacity:1;stroke:#ffffff;stroke-width:0.374;stroke-dasharray:none;stroke-dashoffset:0;stroke-opacity:1;marker-start:url(#marker6);paint-order:stroke markers fill"
       d="m 57.620682,138.1826 14.4946,-22.01989"
       id="path5"
       sodipodi:nodetypes="cc"
       inkscape:label="šipky" />
    <path
       style="font-weight:500;font-size:7.05556px;line-height:0.9;font-family:'Adwaita Sans';-inkscape-font-specification:'Adwaita Sans Medium';letter-spacing:0.0396875px;word-spacing:0px;stroke-width:0.174;paint-order:stroke markers fill"
       d="m 75.838077,113.85694 q 0.640788,0 1.133437,0.3893 l 0.403076,-0.40652 0.341065,0.34106 -0.406521,0.40652 q 0.37896,0.48576 0.37896,1.12655 0,0.76137 -0.544325,1.30569 -0.544326,0.54433 -1.305692,0.54433 -0.633898,0 -1.119657,-0.38241 l -0.406521,0.40652 -0.341065,-0.34106 0.403076,-0.40652 q -0.382406,-0.48576 -0.382406,-1.12655 0,-0.76826 0.544326,-1.31258 0.544325,-0.54433 1.302247,-0.54433 z m 0.785482,0.73381 q -0.34451,-0.24805 -0.785482,-0.24805 -0.558106,0 -0.961182,0.40308 -0.399632,0.39963 -0.399632,0.96807 0,0.44097 0.244602,0.78204 z m -1.560629,2.24276 q 0.341064,0.2446 0.775147,0.2446 0.561551,0 0.961182,-0.39963 0.403076,-0.40308 0.403076,-0.96463 0,-0.44097 -0.237711,-0.77859 z"
       id="text24"
       inkscape:label="Smybol"
       aria-label="⌀" />
    <path
       style="font-weight:500;font-size:5.64444px;line-height:0.9;font-family:'Adwaita Sans';-inkscape-font-specification:'Adwaita Sans Medium';letter-spacing:0.0396875px;word-spacing:0px;stroke-width:0.174;paint-order:stroke markers fill"
       d="m 78.983351,113.62199 v -0.53743 h 3.227363 v 0.53743 H 80.90709 v 3.56912 h -0.614604 v -3.56912 z m 3.240372,3.56912 v -2.91042 h 0.556727 v 0.47129 h 0.01102 q 0.07993,-0.23978 0.250803,-0.37207 0.173633,-0.13504 0.451996,-0.13504 0.06615,0 0.121267,0.006 0.05788,0.003 0.09095,0.008 v 0.54294 q -0.03307,-0.008 -0.118511,-0.0165 -0.08544,-0.011 -0.187413,-0.011 -0.162609,0 -0.300412,0.0744 -0.135048,0.0744 -0.214974,0.22875 -0.07993,0.15434 -0.07993,0.39412 v 1.71979 z m 2.052009,1.15204 v -0.49058 h 0.314193 q 0.09371,0 0.159852,-0.0358 0.06615,-0.0331 0.118511,-0.10749 0.05512,-0.0744 0.09922,-0.19017 l 0.132292,-0.34726 -1.124479,-2.89113 h 0.622873 l 0.581532,1.59577 q 0.07993,0.226 0.15434,0.452 0.07717,0.22324 0.146072,0.44924 h -0.157096 q 0.0689,-0.226 0.143315,-0.44924 0.07717,-0.226 0.157097,-0.452 l 0.573263,-1.59577 h 0.614605 l -1.322916,3.42029 q -0.08268,0.21222 -0.203949,0.35278 -0.121268,0.14332 -0.28112,0.21497 -0.159852,0.0744 -0.35829,0.0744 -0.09095,0 -0.184657,0 -0.09371,0 -0.184657,0 z m 3.991899,-1.08314 q -0.333485,0 -0.600824,-0.10749 -0.26734,-0.10748 -0.429948,-0.3197 -0.162608,-0.21222 -0.184657,-0.52641 h 0.573263 q 0.02481,0.23427 0.184657,0.3638 0.162609,0.12678 0.446484,0.12678 0.278364,0 0.438216,-0.113 0.159853,-0.113 0.159853,-0.28663 0,-0.14883 -0.115756,-0.23702 -0.112999,-0.091 -0.303168,-0.13229 l -0.482313,-0.10749 q -0.410655,-0.0909 -0.622872,-0.30041 -0.212218,-0.20947 -0.212218,-0.53193 0,-0.25907 0.137804,-0.45475 0.140559,-0.19568 0.391362,-0.30592 0.250803,-0.11025 0.584288,-0.11025 0.327973,0 0.581531,0.11576 0.256315,0.11575 0.402387,0.32797 0.148828,0.21222 0.157097,0.50712 H 88.81609 q -0.0028,-0.21222 -0.159853,-0.35002 -0.157096,-0.14056 -0.416167,-0.14056 -0.248047,0 -0.394119,0.11575 -0.146072,0.11576 -0.146072,0.28388 0,0.14883 0.110243,0.23978 0.112999,0.0909 0.308681,0.13505 l 0.496093,0.11024 q 0.427192,0.0937 0.625629,0.28939 0.201193,0.19568 0.201193,0.51263 0,0.27836 -0.15434,0.47955 -0.151584,0.19844 -0.416167,0.30868 -0.264583,0.10749 -0.60358,0.10749 z m 2.263839,-1.04731 v -0.68902 h 0.05236 l 1.240234,-1.24299 h 0.722091 l -1.383549,1.4056 h -0.09095 z m -0.537435,0.97841 v -4.10655 h 0.581532 v 4.10655 z m 1.920984,0 -1.096918,-1.37528 0.399631,-0.40515 1.41111,1.78043 z m 1.11516,1.15204 v -0.49058 h 0.314192 q 0.09371,0 0.159853,-0.0358 0.06615,-0.0331 0.118511,-0.10749 0.05512,-0.0744 0.09922,-0.19017 l 0.132292,-0.34726 -1.124478,-2.89113 h 0.622873 l 0.581531,1.59577 q 0.07993,0.226 0.15434,0.452 0.07717,0.22324 0.146072,0.44924 h -0.157096 q 0.0689,-0.226 0.143316,-0.44924 0.07717,-0.226 0.157096,-0.452 l 0.573264,-1.59577 h 0.614604 l -1.322915,3.42029 q -0.08268,0.21222 -0.20395,0.35278 -0.121267,0.14332 -0.28112,0.21497 -0.159852,0.0744 -0.358289,0.0744 -0.09095,0 -0.184657,0 -0.09371,0 -0.184657,0 z"
       id="text26"
       inkscape:label="Hodnota"
       aria-label="Trysky" />
  </g>
  <g
     id="g5"
     inkscape:label="Výška vrstvy"
     style="fill:#ffffff;fill-opacity:1"
     transform="translate(0,-30.774098)">
    <path
       style="fill:#ffffff;fill-opacity:1;stroke:#ffffff;stroke-width:0.373999;stroke-dasharray:none;stroke-dashoffset:0;stroke-opacity:1;marker-start:url(#marker11-7-6-8);marker-end:url(#marker11-7-6-8);paint-order:stroke markers fill"
       d="m 64.146851,138.1826 0,17.70825"
       id="path10-5-2-2"
       sodipodi:nodetypes="cc"
       inkscape:label="šipky" />
    <g
       id="text18"
       style="font-weight:500;font-size:5.64444px;line-height:0.9;font-family:'Adwaita Sans';-inkscape-font-specification:'Adwaita Sans Medium';letter-spacing:0.0396875px;word-spacing:0px;stroke:#000000;stroke-width:0.174;paint-order:stroke markers fill"
       inkscape:label="Hodnota"
       aria-label="&#10;Výška&#10;vrstvy">
      <path
         style="stroke:none"
         d="m 67.588593,146.20603 -1.491037,-4.10655 h 0.658702 l 0.813042,2.31511 q 0.08544,0.25907 0.201193,0.63114 0.118512,0.36931 0.28112,0.88194 H 67.87798 q 0.157097,-0.51263 0.272852,-0.88194 0.118511,-0.37207 0.203949,-0.63114 l 0.790994,-2.31511 h 0.647677 l -1.468988,4.10655 z"
         id="path19" />
      <path
         style="stroke:none"
         d="m 70.246551,147.35807 v -0.49058 h 0.314192 q 0.09371,0 0.159852,-0.0358 0.06615,-0.0331 0.118512,-0.10748 0.05512,-0.0744 0.09922,-0.19017 l 0.132292,-0.34727 -1.124478,-2.89112 h 0.622872 l 0.581532,1.59577 q 0.07993,0.22599 0.15434,0.45199 0.07717,0.22324 0.146072,0.44924 h -0.157096 q 0.0689,-0.226 0.143316,-0.44924 0.07717,-0.226 0.157096,-0.45199 l 0.573263,-1.59577 h 0.614605 l -1.322916,3.42029 q -0.08268,0.21222 -0.203949,0.35277 -0.121267,0.14332 -0.28112,0.21498 -0.159852,0.0744 -0.358289,0.0744 -0.09095,0 -0.184657,0 -0.09371,0 -0.184657,0 z m 0.857139,-4.43176 0.416167,-0.8351 h 0.620117 l -0.587044,0.8351 z m 3.134759,3.34863 q -0.333485,0 -0.600824,-0.10749 -0.26734,-0.10749 -0.429948,-0.31971 -0.162608,-0.21221 -0.184657,-0.52641 h 0.573264 q 0.0248,0.23427 0.184656,0.36381 0.162609,0.12677 0.446485,0.12677 0.278363,0 0.438215,-0.11299 0.159853,-0.113 0.159853,-0.28664 0,-0.14882 -0.115755,-0.23702 -0.113,-0.091 -0.303169,-0.13229 l -0.482313,-0.10749 q -0.410655,-0.091 -0.622872,-0.30041 -0.212218,-0.20946 -0.212218,-0.53192 0,-0.25907 0.137804,-0.45475 0.140559,-0.19568 0.391362,-0.30593 0.250803,-0.11024 0.584288,-0.11024 0.327973,0 0.581532,0.11575 0.256314,0.11576 0.402386,0.32798 0.148828,0.21222 0.157097,0.50712 h -0.556727 q -0.0028,-0.21222 -0.159853,-0.35003 -0.157096,-0.14056 -0.416167,-0.14056 -0.248047,0 -0.394119,0.11576 -0.146071,0.11575 -0.146071,0.28387 0,0.14883 0.110242,0.23978 0.113,0.091 0.308681,0.13505 l 0.496093,0.11024 q 0.427192,0.0937 0.625629,0.28939 0.201193,0.19568 0.201193,0.51263 0,0.27836 -0.15434,0.47956 -0.151584,0.19844 -0.416167,0.30868 -0.264583,0.10749 -0.60358,0.10749 z m -0.405143,-4.18373 0.383094,0.47681 0.383095,-0.47681 h 0.529166 v 0.003 l -0.65319,0.77721 h -0.520898 l -0.647677,-0.77721 v -0.003 z m 2.668982,3.13642 v -0.68902 h 0.05237 l 1.240233,-1.24299 h 0.722092 l -1.38355,1.4056 h -0.09095 z m -0.537434,0.9784 v -4.10655 h 0.581531 v 4.10655 z m 1.920984,0 -1.096918,-1.37528 0.399631,-0.40514 1.41111,1.78042 z m 1.949647,0.0469 q -0.289388,0 -0.518142,-0.0992 -0.225998,-0.0992 -0.35829,-0.2949 -0.132291,-0.19568 -0.132291,-0.48507 0,-0.24805 0.09371,-0.4079 0.09646,-0.15985 0.259071,-0.25356 0.162609,-0.0937 0.369314,-0.14056 0.206706,-0.0496 0.427192,-0.0744 0.275607,-0.0358 0.432703,-0.0551 0.159853,-0.0221 0.225998,-0.0661 0.0689,-0.0469 0.0689,-0.15158 v -0.0248 q 0,-0.14056 -0.0689,-0.24805 -0.0689,-0.11024 -0.201193,-0.17363 -0.132292,-0.0634 -0.316949,-0.0634 -0.184656,0 -0.327972,0.0606 -0.14056,0.0606 -0.225998,0.16812 -0.08268,0.10473 -0.09371,0.23978 H 78.89842 q 0.01378,-0.27837 0.16812,-0.49059 0.15434,-0.21221 0.424436,-0.33348 0.270095,-0.12127 0.633897,-0.12127 0.267339,0 0.482313,0.0689 0.214974,0.0689 0.363802,0.19844 0.151584,0.12678 0.228754,0.30593 0.07993,0.17914 0.07993,0.39963 v 1.99539 h -0.573264 v -0.41341 h -0.01102 q -0.06063,0.11851 -0.165364,0.22324 -0.104731,0.10474 -0.275608,0.17088 -0.16812,0.0662 -0.418923,0.0662 z m 0.118511,-0.46854 q 0.256315,0 0.421679,-0.0909 0.168121,-0.0937 0.248047,-0.24529 0.08268,-0.15158 0.08268,-0.33073 v -0.34175 q -0.03032,0.0248 -0.09922,0.0469 -0.06615,0.0193 -0.162609,0.0386 -0.09646,0.0165 -0.209461,0.0358 -0.112999,0.0193 -0.225998,0.0331 -0.159853,0.0221 -0.297656,0.0744 -0.137804,0.0496 -0.223242,0.14056 -0.08268,0.0909 -0.08268,0.23977 0,0.12403 0.06615,0.21498 0.06615,0.0882 0.190169,0.1378 0.124024,0.0468 0.292144,0.0468 z"
         id="path21" />
      <path
         style="stroke:none"
         d="m 67.227547,151.28603 -1.107942,-2.91041 h 0.622873 l 0.578775,1.59576 q 0.07993,0.226 0.151584,0.452 0.07441,0.22324 0.146072,0.44924 H 67.47835 q 0.07166,-0.226 0.143315,-0.44924 0.07166,-0.226 0.148828,-0.452 l 0.570508,-1.59576 h 0.614604 l -1.110698,2.91041 z m 2.161864,0 v -2.91041 h 0.556727 v 0.47128 h 0.01102 q 0.07993,-0.23977 0.250802,-0.37207 0.173633,-0.13504 0.451997,-0.13504 0.06615,0 0.121267,0.006 0.05788,0.003 0.09095,0.008 v 0.54294 q -0.03307,-0.008 -0.118511,-0.0165 -0.08544,-0.011 -0.187413,-0.011 -0.162608,0 -0.300412,0.0744 -0.135048,0.0744 -0.214974,0.22875 -0.07993,0.15434 -0.07993,0.39412 v 1.71979 z m 3.032785,0.0689 q -0.333485,0 -0.600825,-0.10749 -0.267339,-0.10748 -0.429947,-0.3197 -0.162609,-0.21222 -0.184657,-0.52641 h 0.573263 q 0.02481,0.23427 0.184657,0.3638 0.162609,0.12678 0.446484,0.12678 0.278364,0 0.438216,-0.113 0.159852,-0.113 0.159852,-0.28663 0,-0.14883 -0.115755,-0.23702 -0.112999,-0.0909 -0.303168,-0.13229 l -0.482313,-0.10749 q -0.410655,-0.0909 -0.622873,-0.30041 -0.212217,-0.20946 -0.212217,-0.53193 0,-0.25907 0.137803,-0.45475 0.14056,-0.19568 0.391363,-0.30592 0.250803,-0.11024 0.584288,-0.11024 0.327973,0 0.581531,0.11575 0.256315,0.11576 0.402387,0.32797 0.148828,0.21222 0.157096,0.50712 h -0.556727 q -0.0028,-0.21222 -0.159852,-0.35002 -0.157096,-0.14056 -0.416167,-0.14056 -0.248047,0 -0.394119,0.11575 -0.146072,0.11576 -0.146072,0.28388 0,0.14883 0.110243,0.23978 0.112999,0.0909 0.308681,0.13505 l 0.496093,0.11024 q 0.427192,0.0937 0.625629,0.28939 0.201193,0.19568 0.201193,0.51263 0,0.27836 -0.15434,0.47955 -0.151584,0.19844 -0.416167,0.30868 -0.264583,0.10749 -0.60358,0.10749 z m 3.184368,-2.97931 v 0.47955 h -1.686718 v -0.47955 z m -1.174088,-0.79375 h 0.581532 v 2.93521 q 0,0.15986 0.06615,0.226 0.0689,0.0634 0.242534,0.0634 0.06615,0 0.146072,0 0.07993,0 0.137804,0 v 0.47956 q -0.07166,0 -0.173633,0 -0.09922,0 -0.192925,0 -0.410655,0 -0.609093,-0.17088 -0.198437,-0.17363 -0.198437,-0.52365 z m 2.675593,3.70416 -1.107942,-2.91041 H 76.623 l 0.578775,1.59576 q 0.07993,0.226 0.151584,0.452 0.07441,0.22324 0.146072,0.44924 h -0.14056 q 0.07166,-0.226 0.143316,-0.44924 0.07166,-0.226 0.148828,-0.452 l 0.570508,-1.59576 h 0.614604 l -1.110698,2.91041 z m 2.200449,1.15204 v -0.49058 h 0.314193 q 0.09371,0 0.159852,-0.0358 0.06615,-0.0331 0.118511,-0.10749 0.05512,-0.0744 0.09922,-0.19017 l 0.132291,-0.34726 -1.124478,-2.89112 h 0.622873 l 0.581532,1.59576 q 0.07993,0.226 0.15434,0.452 0.07717,0.22324 0.146072,0.44924 h -0.157097 q 0.0689,-0.226 0.143316,-0.44924 0.07717,-0.226 0.157097,-0.452 l 0.573263,-1.59576 h 0.614605 l -1.322916,3.42028 q -0.08268,0.21222 -0.20395,0.35278 -0.121267,0.14332 -0.281119,0.21497 -0.159852,0.0744 -0.35829,0.0744 -0.09095,0 -0.184657,0 -0.09371,0 -0.184657,0 z"
         id="path22" />
    </g>
    <use
       x="0"
       y="0"
       xlink:href="#path29"
       id="use30"
       transform="rotate(180,56.443324,109.54989)" />
    <use
       x="0"
       y="0"
       xlink:href="#use30"
       id="use31"
       transform="rotate(180,64.144645,146.82263)" />
  </g>
  <g
     id="g27"
     inkscape:label="Tlouštka skla"
     style="fill:#ffffff;fill-opacity:1;stroke:none;stroke-opacity:1"
     transform="translate(0,-30.774098)">
    <path
       style="fill:#ffffff;fill-opacity:1;stroke:#ffffff;stroke-width:0.373999;stroke-dasharray:2.99199, 1.87;stroke-dashoffset:0;stroke-opacity:1;marker-start:url(#marker11-7);marker-end:url(#marker11-7);paint-order:stroke markers fill"
       d="m 100.24167,155.89085 v 11.67601"
       id="path10-5"
       sodipodi:nodetypes="cc"
       inkscape:label="šipky" />
    <path
       d="m 96.492578,149.35512 q -0.493337,0 -0.848871,-0.16812 -0.355534,-0.16812 -0.548459,-0.48232 -0.192925,-0.31419 -0.192925,-0.74689 h 0.611849 q 0.0028,0.27009 0.118511,0.46577 0.115755,0.19293 0.333485,0.2949 0.220486,0.10198 0.52641,0.10198 0.281119,0 0.485069,-0.0799 0.206706,-0.0799 0.322461,-0.226 0.115755,-0.14882 0.115755,-0.35002 0,-0.15709 -0.07993,-0.27285 -0.07717,-0.11851 -0.250803,-0.2067 -0.170877,-0.0882 -0.457508,-0.15434 l -0.449241,-0.10749 q -0.622872,-0.14607 -0.909504,-0.41341 -0.283876,-0.26734 -0.283876,-0.69453 0,-0.36105 0.181901,-0.62839 0.181901,-0.27009 0.51263,-0.41892 0.330729,-0.15159 0.768945,-0.15159 0.443728,0 0.768944,0.1571 0.325217,0.1571 0.504362,0.44648 0.181901,0.28939 0.195681,0.69178 h -0.592556 q -0.02205,-0.35553 -0.259071,-0.55673 -0.237022,-0.20395 -0.625629,-0.20395 -0.24529,0 -0.438215,0.0827 -0.190169,0.0799 -0.300412,0.22324 -0.107487,0.14056 -0.107487,0.32797 0,0.14883 0.07993,0.25907 0.07993,0.11024 0.250803,0.19293 0.173632,0.0827 0.454752,0.15158 l 0.443728,0.10473 q 0.30868,0.0744 0.534678,0.17915 0.228754,0.10473 0.374826,0.24529 0.148828,0.1378 0.220486,0.31695 0.07441,0.17638 0.07441,0.39687 0,0.36931 -0.190169,0.64492 -0.190169,0.27561 -0.534678,0.42719 -0.34451,0.15159 -0.810286,0.15159 z m 2.646934,-1.04456 v -0.68901 h 0.05237 l 1.240233,-1.24299 h 0.72209 l -1.383547,1.40559 h -0.09095 z m -0.537435,0.97841 v -4.10655 h 0.581532 v 4.10655 z m 1.920983,0 -1.096917,-1.37528 0.399631,-0.40514 1.411106,1.78042 z m 1.87248,0 q -0.43546,0 -0.62287,-0.15985 -0.18742,-0.16261 -0.18742,-0.54019 v -3.40651 h 0.58153 v 3.34863 q 0,0.16812 0.0579,0.226 0.0579,0.0551 0.22324,0.0551 0.0248,0 0.0579,0 0.0331,0 0.0579,0 v 0.4768 q -0.0413,0 -0.0854,0 -0.0413,0 -0.0827,0 z m 1.79365,0.0661 q -0.41617,0 -0.73036,-0.19293 -0.3142,-0.19292 -0.49058,-0.53468 -0.17364,-0.34175 -0.17364,-0.78823 0,-0.452 0.17364,-0.79375 0.17638,-0.34451 0.49058,-0.53744 0.31419,-0.19568 0.73036,-0.19568 0.41616,0 0.7276,0.19568 0.31419,0.19293 0.48783,0.53744 0.17638,0.34175 0.17638,0.79375 0,0.44648 -0.17638,0.78823 -0.17364,0.34176 -0.48783,0.53468 -0.31144,0.19293 -0.7276,0.19293 z m 0,-0.50161 q 0.24804,0 0.42719,-0.12402 0.1819,-0.12678 0.27836,-0.35554 0.0992,-0.22875 0.0992,-0.53467 0,-0.3142 -0.0992,-0.54295 -0.0965,-0.22875 -0.27836,-0.35553 -0.17915,-0.12678 -0.42719,-0.12678 -0.24805,0 -0.42995,0.12678 -0.17915,0.12402 -0.27836,0.35553 -0.0965,0.22875 -0.0965,0.54295 0,0.30868 0.0965,0.53743 0.0992,0.226 0.27836,0.35278 0.17914,0.12402 0.42995,0.12402 z"
       id="text19"
       style="font-weight:500;font-size:5.64444px;line-height:0.9;font-family:'Adwaita Sans';-inkscape-font-specification:'Adwaita Sans Medium';text-align:end;letter-spacing:0.0396875px;word-spacing:0px;text-anchor:end;stroke-width:0.174;paint-order:stroke markers fill"
       inkscape:label="Hodnota"
       aria-label="Sklo" />
    <use
       x="0"
       y="0"
       xlink:href="#use30"
       id="use32"
       transform="translate(36.090611,18.357927)" />
    <use
       x="0"
       y="0"
       xlink:href="#use31"
       id="use33"
       transform="translate(36.094818,12.087007)" />
  </g>
  <g
     id="g4"
     inkscape:label="Schovaná část trysky"
     style="fill:#ffffff;fill-opacity:1;stroke:#ffffff;stroke-opacity:1"
     transform="translate(0,-30.244931)">
    <path
       style="fill:none;fill-opacity:1;stroke:#000000;stroke-width:0.373999;stroke-dasharray:2.99199, 1.87;stroke-dashoffset:0;stroke-opacity:1;marker-start:url(#marker11-7-6);marker-end:url(#marker11-7-6);paint-order:stroke markers fill"
       d="M 64.593756,81.075889 V 93.574405"
       id="path10-5-2"
       sodipodi:nodetypes="cc" />
    <path
       d="m 23.359378,126.21735 q -0.493337,0 -0.84887,-0.16812 -0.355534,-0.16812 -0.548459,-0.48231 -0.192925,-0.31419 -0.192925,-0.7469 h 0.611848 q 0.0028,0.2701 0.118511,0.46578 0.115755,0.19292 0.333485,0.2949 0.220486,0.10197 0.52641,0.10197 0.28112,0 0.48507,-0.0799 0.206705,-0.0799 0.32246,-0.226 0.115755,-0.14883 0.115755,-0.35002 0,-0.1571 -0.07993,-0.27285 -0.07717,-0.11851 -0.250803,-0.20671 -0.170876,-0.0882 -0.457508,-0.15434 l -0.44924,-0.10749 q -0.622873,-0.14607 -0.909505,-0.41341 -0.283875,-0.26734 -0.283875,-0.69453 0,-0.36104 0.181901,-0.62838 0.181901,-0.2701 0.51263,-0.41893 0.330728,-0.15158 0.768944,-0.15158 0.443728,0 0.768945,0.1571 0.325217,0.15709 0.504362,0.44648 0.1819,0.28939 0.195681,0.69178 h -0.592556 q -0.02205,-0.35554 -0.259071,-0.55673 -0.237023,-0.20395 -0.625629,-0.20395 -0.245291,0 -0.438216,0.0827 -0.190169,0.0799 -0.300412,0.22324 -0.107487,0.14056 -0.107487,0.32798 0,0.14882 0.07993,0.25907 0.07993,0.11024 0.250803,0.19292 0.173633,0.0827 0.454752,0.15159 l 0.443728,0.10473 q 0.308681,0.0744 0.534679,0.17914 0.228754,0.10473 0.374826,0.24529 0.148828,0.13781 0.220486,0.31695 0.07441,0.17639 0.07441,0.39688 0,0.36931 -0.190169,0.64492 -0.190169,0.2756 -0.534679,0.42719 -0.344509,0.15158 -0.810286,0.15158 z m 2.646934,-1.04455 v -0.68902 h 0.05237 l 1.240233,-1.24299 h 0.722092 l -1.38355,1.4056 h -0.09095 z m -0.537434,0.97841 v -4.10655 h 0.581531 v 4.10655 z m 1.920984,0 -1.096918,-1.37528 0.399631,-0.40515 1.41111,1.78043 z m 1.062191,0 v -2.91042 h 0.556727 v 0.47129 h 0.01102 q 0.07993,-0.23978 0.250803,-0.37207 0.173632,-0.13505 0.451996,-0.13505 0.06615,0 0.121267,0.006 0.05788,0.003 0.09095,0.008 v 0.54295 q -0.03307,-0.008 -0.118512,-0.0165 -0.08544,-0.011 -0.187413,-0.011 -0.162608,0 -0.300412,0.0744 -0.135047,0.0744 -0.214974,0.22876 -0.07993,0.15434 -0.07993,0.39412 v 1.71979 z m 2.052009,1.15204 v -0.49059 h 0.314193 q 0.09371,0 0.159852,-0.0358 0.06615,-0.0331 0.118511,-0.10749 0.05512,-0.0744 0.09922,-0.19017 l 0.132292,-0.34727 -1.124479,-2.89112 h 0.622873 l 0.581532,1.59577 q 0.07993,0.226 0.15434,0.452 0.07717,0.22324 0.146072,0.44924 h -0.157096 q 0.0689,-0.226 0.143316,-0.44924 0.07717,-0.226 0.157096,-0.452 l 0.573263,-1.59577 h 0.614605 l -1.322916,3.42029 q -0.08268,0.21222 -0.203949,0.35278 -0.121268,0.14331 -0.28112,0.21497 -0.159852,0.0744 -0.35829,0.0744 -0.09095,0 -0.184657,0 -0.09371,0 -0.184657,0 z m 4.477517,-4.06246 v 0.47956 h -1.686718 v -0.47956 z m -1.174088,-0.79375 h 0.581532 v 2.93522 q 0,0.15985 0.06614,0.226 0.0689,0.0634 0.242535,0.0634 0.06615,0 0.146072,0 0.07993,0 0.137804,0 v 0.47956 q -0.07166,0 -0.173633,0 -0.09922,0 -0.192925,0 -0.410655,0 -0.609093,-0.17088 -0.198437,-0.17363 -0.198437,-0.52365 z m 2.634251,3.75102 q -0.289387,0 -0.518142,-0.0992 -0.225998,-0.0992 -0.358289,-0.2949 -0.132292,-0.19568 -0.132292,-0.48507 0,-0.24804 0.09371,-0.4079 0.09646,-0.15985 0.259071,-0.25356 0.162608,-0.0937 0.369314,-0.14056 0.206705,-0.0496 0.427191,-0.0744 0.275608,-0.0358 0.432704,-0.0551 0.159852,-0.0221 0.225998,-0.0662 0.0689,-0.0468 0.0689,-0.15158 v -0.0248 q 0,-0.14055 -0.0689,-0.24804 -0.0689,-0.11024 -0.201194,-0.17363 -0.132291,-0.0634 -0.316948,-0.0634 -0.184657,0 -0.327973,0.0606 -0.14056,0.0606 -0.225998,0.16812 -0.08268,0.10473 -0.09371,0.23978 h -0.570507 q 0.01378,-0.27837 0.168121,-0.49058 0.15434,-0.21222 0.424435,-0.33349 0.270095,-0.12127 0.633897,-0.12127 0.267339,0 0.482313,0.0689 0.214974,0.0689 0.363802,0.19843 0.151584,0.12678 0.228754,0.30593 0.07993,0.17914 0.07993,0.39963 v 1.9954 h -0.573263 v -0.41341 h -0.01102 q -0.06063,0.11851 -0.165365,0.22324 -0.104731,0.10473 -0.275607,0.17087 -0.168121,0.0661 -0.418924,0.0661 z m 0.118512,-0.46853 q 0.256314,0 0.421679,-0.0909 0.16812,-0.0937 0.248047,-0.24529 0.08268,-0.15159 0.08268,-0.33073 v -0.34176 q -0.03032,0.0248 -0.09922,0.0469 -0.06615,0.0193 -0.162608,0.0386 -0.09646,0.0165 -0.209462,0.0358 -0.112999,0.0193 -0.225998,0.0331 -0.159852,0.022 -0.297656,0.0744 -0.137804,0.0496 -0.223242,0.14056 -0.08268,0.091 -0.08268,0.23978 0,0.12402 0.06615,0.21497 0.06614,0.0882 0.190169,0.1378 0.124023,0.0469 0.292144,0.0469 z m -0.09922,-2.85805 0.416167,-0.83509 h 0.620117 l -0.587044,0.83509 z m 4.908017,0.36931 v 0.47956 h -1.686718 v -0.47956 z m -1.174088,-0.79375 h 0.581532 v 2.93522 q 0,0.15985 0.06614,0.226 0.0689,0.0634 0.242535,0.0634 0.06615,0 0.146072,0 0.07993,0 0.137804,0 v 0.47956 q -0.07166,0 -0.173633,0 -0.09922,0 -0.192925,0 -0.410655,0 -0.609093,-0.17088 -0.198437,-0.17363 -0.198437,-0.52365 z m 1.67404,3.70417 v -2.91042 h 0.556727 v 0.47129 h 0.01102 q 0.07993,-0.23978 0.250803,-0.37207 0.173632,-0.13505 0.451996,-0.13505 0.06615,0 0.121267,0.006 0.05788,0.003 0.09095,0.008 v 0.54295 q -0.03307,-0.008 -0.118511,-0.0165 -0.08544,-0.011 -0.187414,-0.011 -0.162608,0 -0.300412,0.0744 -0.135047,0.0744 -0.214973,0.22876 -0.07993,0.15434 -0.07993,0.39412 v 1.71979 z m 2.052009,1.15204 v -0.49059 h 0.314192 q 0.09371,0 0.159852,-0.0358 0.06615,-0.0331 0.118512,-0.10749 0.05512,-0.0744 0.09922,-0.19017 l 0.132292,-0.34727 -1.124478,-2.89112 h 0.622872 l 0.581532,1.59577 q 0.07993,0.226 0.15434,0.452 0.07717,0.22324 0.146072,0.44924 h -0.157096 q 0.0689,-0.226 0.143316,-0.44924 0.07717,-0.226 0.157096,-0.452 l 0.573263,-1.59577 h 0.614605 l -1.322916,3.42029 q -0.08268,0.21222 -0.203949,0.35278 -0.121267,0.14331 -0.28112,0.21497 -0.159852,0.0744 -0.358289,0.0744 -0.09095,0 -0.184657,0 -0.09371,0 -0.184657,0 z m 3.991898,-1.08314 q -0.333485,0 -0.600825,-0.10749 -0.267339,-0.10748 -0.429947,-0.3197 -0.162609,-0.21222 -0.184657,-0.52641 h 0.573263 q 0.02481,0.23426 0.184657,0.3638 0.162609,0.12678 0.446484,0.12678 0.278364,0 0.438216,-0.113 0.159852,-0.113 0.159852,-0.28663 0,-0.14883 -0.115755,-0.23702 -0.112999,-0.091 -0.303168,-0.1323 l -0.482313,-0.10748 q -0.410655,-0.091 -0.622873,-0.30042 -0.212217,-0.20946 -0.212217,-0.53192 0,-0.25907 0.137803,-0.45475 0.14056,-0.19568 0.391363,-0.30592 0.250803,-0.11025 0.584288,-0.11025 0.327973,0 0.581531,0.11576 0.256315,0.11575 0.402387,0.32797 0.148828,0.21222 0.157096,0.50712 h -0.556727 q -0.0028,-0.21222 -0.159852,-0.35002 -0.157096,-0.14056 -0.416167,-0.14056 -0.248047,0 -0.394119,0.11575 -0.146072,0.11576 -0.146072,0.28388 0,0.14883 0.110243,0.23978 0.112999,0.091 0.308681,0.13504 l 0.496093,0.11025 q 0.427192,0.0937 0.625629,0.28938 0.201193,0.19569 0.201193,0.51263 0,0.27837 -0.15434,0.47956 -0.151584,0.19844 -0.416167,0.30868 -0.264583,0.10749 -0.60358,0.10749 z m 2.26384,-1.04731 v -0.68902 h 0.05237 l 1.240233,-1.24299 h 0.722092 l -1.38355,1.4056 h -0.09095 z m -0.537434,0.97841 v -4.10655 h 0.581532 v 4.10655 z m 1.920984,0 -1.096918,-1.37528 0.399631,-0.40515 1.41111,1.78043 z m 1.949645,0.0468 q -0.289388,0 -0.518142,-0.0992 -0.225998,-0.0992 -0.358289,-0.2949 -0.132292,-0.19568 -0.132292,-0.48507 0,-0.24804 0.09371,-0.4079 0.09646,-0.15985 0.259071,-0.25356 0.162608,-0.0937 0.369314,-0.14056 0.206705,-0.0496 0.427191,-0.0744 0.275608,-0.0358 0.432704,-0.0551 0.159852,-0.0221 0.225998,-0.0662 0.0689,-0.0468 0.0689,-0.15158 v -0.0248 q 0,-0.14055 -0.0689,-0.24804 -0.0689,-0.11024 -0.201194,-0.17363 -0.132291,-0.0634 -0.316948,-0.0634 -0.184657,0 -0.327973,0.0606 -0.14056,0.0606 -0.225998,0.16812 -0.08268,0.10473 -0.09371,0.23978 h -0.570507 q 0.01378,-0.27837 0.168121,-0.49058 0.15434,-0.21222 0.424435,-0.33349 0.270095,-0.12127 0.633897,-0.12127 0.267339,0 0.482313,0.0689 0.214974,0.0689 0.363802,0.19843 0.151584,0.12678 0.228754,0.30593 0.07993,0.17914 0.07993,0.39963 v 1.9954 h -0.573263 v -0.41341 h -0.01102 q -0.06063,0.11851 -0.165364,0.22324 -0.104731,0.10473 -0.275607,0.17087 -0.168121,0.0661 -0.418924,0.0661 z m 0.118511,-0.46853 q 0.256315,0 0.42168,-0.0909 0.16812,-0.0937 0.248047,-0.24529 0.08268,-0.15159 0.08268,-0.33073 v -0.34176 q -0.03032,0.0248 -0.09922,0.0469 -0.06615,0.0193 -0.162608,0.0386 -0.09646,0.0165 -0.209462,0.0358 -0.112999,0.0193 -0.225998,0.0331 -0.159852,0.022 -0.297656,0.0744 -0.137804,0.0496 -0.223242,0.14056 -0.08268,0.091 -0.08268,0.23978 0,0.12402 0.06614,0.21497 0.06615,0.0882 0.19017,0.1378 0.124023,0.0469 0.292143,0.0469 z"
       id="text20"
       style="font-weight:500;font-size:5.64444px;line-height:0.9;font-family:'Adwaita Sans';-inkscape-font-specification:'Adwaita Sans Medium';letter-spacing:0.0396875px;word-spacing:0px;fill:#000000;stroke:none;stroke-width:0.174;paint-order:stroke markers fill"
       inkscape:label="Hodnota"
       transform="translate(47.889187,-36.801724)"
       aria-label="Skrytá tryska" />
    <use
       x="0"
       y="0"
       xlink:href="#path29"
       id="use1"
       transform="translate(15.858164,12.007556)" />
    <path
       style="fill:none;fill-opacity:1;stroke:#000000;stroke-width:0.689;stroke-dasharray:none;stroke-opacity:1;paint-order:stroke markers fill"
       d="m 66.859446,48.099913 -2.257074,2.162805 -2.274897,-2.169569"
       id="path14"
       sodipodi:nodetypes="ccc"
       transform="translate(0,30.244931)" />
  </g>
</svg>
