<?xml version="1.0" encoding="UTF-8" standalone="no"?>
<!-- Created with Inkscape (http://www.inkscape.org/) -->

<svg
   width="10mm"
   height="10mm"
   viewBox="0 0 10 10"
   version="1.1"
   id="svg1"
   inkscape:version="1.4.3 (0d15f75042, 2025-12-25)"
   sodipodi:docname="test.svg"
   xmlns:inkscape="http://www.inkscape.org/namespaces/inkscape"
   xmlns:sodipodi="http://sodipodi.sourceforge.net/DTD/sodipodi-0.dtd"
   xmlns="http://www.w3.org/2000/svg"
   xmlns:svg="http://www.w3.org/2000/svg">
  <sodipodi:namedview
     id="namedview1"
     pagecolor="#ffffff"
     bordercolor="#000000"
     borderopacity="0.25"
     inkscape:showpageshadow="2"
     inkscape:pageopacity="0.0"
     inkscape:pagecheckerboard="0"
     inkscape:deskcolor="#d1d1d1"
     inkscape:document-units="px"
     inkscape:zoom="11.620241"
     inkscape:cx="21.514183"
     inkscape:cy="27.581183"
     inkscape:window-width="1920"
     inkscape:window-height="1080"
     inkscape:window-x="0"
     inkscape:window-y="0"
     inkscape:window-maximized="1"
     inkscape:current-layer="layer1" />
  <defs
     id="defs1" />
  <g
     inkscape:label="Vrstva 1"
     inkscape:groupmode="layer"
     id="layer1"
     transform="scale(0.26458332)">
    <rect
       style="fill:#cb0000;fill-opacity:1;stroke:none;stroke-width:6.54;paint-order:stroke markers fill"
       id="rect1"
       width="18.897638"
       height="18.897638"
       x="0"
       y="0"
       ry="9.4488192" />
    <path
       id="rect2"
       style="fill:#0006cb;fill-opacity:1;stroke:none;stroke-width:13.08;paint-order:stroke markers fill"
       d="M 23.38086 18.898438 C 20.897005 18.898438 18.898438 20.897005 18.898438 23.38086 L 18.898438 33.312501 C 18.898438 35.796356 20.897005 37.794923 23.38086 37.794923 L 33.312501 37.794923 C 35.796356 37.794923 37.794923 35.796356 37.794923 33.312501 L 37.794923 23.38086 C 37.794923 20.897005 35.796356 18.898438 33.312501 18.898438 L 23.38086 18.898438 z M 29.861329 25.386719 A 5.2494607 4.0876946 0 0 1 35.111329 29.47461 A 5.2494607 4.0876946 0 0 1 29.861329 33.562501 A 5.2494607 4.0876946 0 0 1 24.611329 29.47461 A 5.2494607 4.0876946 0 0 1 29.861329 25.386719 z " />
    <path
       style="fill:none;fill-opacity:1;stroke:#444444;stroke-width:0.28;stroke-dasharray:none;stroke-opacity:1;paint-order:stroke markers fill"
       d="m 2.8524217,22.185502 11.0927513,0.211291 2.00726,6.761296 -10.3532348,0.633871 -2.958067,-0.950807 1.3733882,4.542746 11.3040416,0.316935 -12.5717845,1.24202"
       id="path2"
       sodipodi:nodetypes="cccccccc" />
  </g>
</svg>
